<?xml version="1.0" encoding="utf-8" standalone="no"?>
<!DOCTYPE svg PUBLIC "-//W3C//DTD SVG 1.1//EN"
  "http://www.w3.org/Graphics/SVG/1.1/DTD/svg11.dtd">
<!-- Created with matplotlib (http://matplotlib.org/) -->
<svg height="288pt" version="1.1" viewBox="0 0 432 288" width="432pt" xmlns="http://www.w3.org/2000/svg" xmlns:xlink="http://www.w3.org/1999/xlink">
 <defs>
  <style type="text/css">
*{stroke-linecap:butt;stroke-linejoin:round;}
  </style>
 </defs>
 <g id="figure_1">
  <g id="patch_1">
   <path d="M 0 288 
L 432 288 
L 432 0 
L 0 0 
z
" style="fill:#ffffff;"/>
  </g>
  <g id="axes_1">
   <g id="patch_2">
    <path d="M 54 252 
L 388.8 252 
L 388.8 34.56 
L 54 34.56 
z
" style="fill:#ffffff;"/>
   </g>
   <g id="matplotlib.axis_1">
    <g id="xtick_1">
     <g id="line2d_1">
      <defs>
       <path d="M 0 0 
L 0 3.5 
" id="m315d7a87e4" style="stroke:#000000;stroke-width:0.8;"/>
      </defs>
      <g>
       <use style="stroke:#000000;stroke-width:0.8;" x="69.218182" xlink:href="#m315d7a87e4" y="252"/>
      </g>
     </g>
     <g id="text_1">
      <!-- 0 -->
      <defs>
       <path d="M 3.609375 32.71875 
Q 3.609375 44.046875 7.03125 52.21875 
Q 10.453125 60.40625 16.109375 64.40625 
Q 20.515625 67.578125 25.203125 67.578125 
Q 32.8125 67.578125 38.875 59.8125 
Q 46.4375 50.203125 46.4375 33.734375 
Q 46.4375 22.21875 43.109375 14.15625 
Q 39.796875 6.109375 34.640625 2.46875 
Q 29.5 -1.171875 24.703125 -1.171875 
Q 15.234375 -1.171875 8.9375 10.015625 
Q 3.609375 19.4375 3.609375 32.71875 
z
M 13.1875 31.5 
Q 13.1875 17.828125 16.546875 9.1875 
Q 19.34375 1.90625 24.859375 1.90625 
Q 27.484375 1.90625 30.3125 4.265625 
Q 33.15625 6.640625 34.625 12.203125 
Q 36.859375 20.609375 36.859375 35.890625 
Q 36.859375 47.21875 34.515625 54.78125 
Q 32.765625 60.40625 29.984375 62.75 
Q 27.984375 64.359375 25.140625 64.359375 
Q 21.828125 64.359375 19.234375 61.375 
Q 15.71875 57.328125 14.453125 48.625 
Q 13.1875 39.9375 13.1875 31.5 
z
" id="TimesNewRomanPSMT-30"/>
      </defs>
      <g transform="translate(66.718182 265.94375)scale(0.1 -0.1)">
       <use xlink:href="#TimesNewRomanPSMT-30"/>
      </g>
     </g>
    </g>
    <g id="xtick_2">
     <g id="line2d_2">
      <g>
       <use style="stroke:#000000;stroke-width:0.8;" x="130.091518" xlink:href="#m315d7a87e4" y="252"/>
      </g>
     </g>
     <g id="text_2">
      <!-- 20000 -->
      <defs>
       <path d="M 45.84375 12.75 
L 41.21875 0 
L 2.15625 0 
L 2.15625 1.8125 
Q 19.390625 17.53125 26.421875 27.484375 
Q 33.453125 37.453125 33.453125 45.703125 
Q 33.453125 52 29.59375 56.046875 
Q 25.734375 60.109375 20.359375 60.109375 
Q 15.484375 60.109375 11.59375 57.25 
Q 7.71875 54.390625 5.859375 48.875 
L 4.046875 48.875 
Q 5.28125 57.90625 10.328125 62.734375 
Q 15.375 67.578125 22.953125 67.578125 
Q 31 67.578125 36.390625 62.40625 
Q 41.796875 57.234375 41.796875 50.203125 
Q 41.796875 45.171875 39.453125 40.140625 
Q 35.84375 32.234375 27.734375 23.390625 
Q 15.578125 10.109375 12.546875 7.375 
L 29.828125 7.375 
Q 35.109375 7.375 37.234375 7.765625 
Q 39.359375 8.15625 41.0625 9.34375 
Q 42.78125 10.546875 44.046875 12.75 
z
" id="TimesNewRomanPSMT-32"/>
      </defs>
      <g transform="translate(117.591518 265.94375)scale(0.1 -0.1)">
       <use xlink:href="#TimesNewRomanPSMT-32"/>
       <use x="50" xlink:href="#TimesNewRomanPSMT-30"/>
       <use x="100" xlink:href="#TimesNewRomanPSMT-30"/>
       <use x="150" xlink:href="#TimesNewRomanPSMT-30"/>
       <use x="200" xlink:href="#TimesNewRomanPSMT-30"/>
      </g>
     </g>
    </g>
    <g id="xtick_3">
     <g id="line2d_3">
      <g>
       <use style="stroke:#000000;stroke-width:0.8;" x="190.964854" xlink:href="#m315d7a87e4" y="252"/>
      </g>
     </g>
     <g id="text_3">
      <!-- 40000 -->
      <defs>
       <path d="M 46.53125 24.421875 
L 46.53125 17.484375 
L 37.640625 17.484375 
L 37.640625 0 
L 29.59375 0 
L 29.59375 17.484375 
L 1.5625 17.484375 
L 1.5625 23.734375 
L 32.28125 67.578125 
L 37.640625 67.578125 
L 37.640625 24.421875 
z
M 29.59375 24.421875 
L 29.59375 57.28125 
L 6.34375 24.421875 
z
" id="TimesNewRomanPSMT-34"/>
      </defs>
      <g transform="translate(178.464854 265.94375)scale(0.1 -0.1)">
       <use xlink:href="#TimesNewRomanPSMT-34"/>
       <use x="50" xlink:href="#TimesNewRomanPSMT-30"/>
       <use x="100" xlink:href="#TimesNewRomanPSMT-30"/>
       <use x="150" xlink:href="#TimesNewRomanPSMT-30"/>
       <use x="200" xlink:href="#TimesNewRomanPSMT-30"/>
      </g>
     </g>
    </g>
    <g id="xtick_4">
     <g id="line2d_4">
      <g>
       <use style="stroke:#000000;stroke-width:0.8;" x="251.83819" xlink:href="#m315d7a87e4" y="252"/>
      </g>
     </g>
     <g id="text_4">
      <!-- 60000 -->
      <defs>
       <path d="M 44.828125 67.578125 
L 44.828125 65.765625 
Q 38.375 65.140625 34.296875 63.203125 
Q 30.21875 61.28125 26.234375 57.328125 
Q 22.265625 53.375 19.65625 48.515625 
Q 17.046875 43.65625 15.28125 36.96875 
Q 22.3125 41.796875 29.390625 41.796875 
Q 36.1875 41.796875 41.15625 36.328125 
Q 46.140625 30.859375 46.140625 22.265625 
Q 46.140625 13.96875 41.109375 7.125 
Q 35.0625 -1.171875 25.09375 -1.171875 
Q 18.3125 -1.171875 13.578125 3.328125 
Q 4.296875 12.0625 4.296875 25.984375 
Q 4.296875 34.859375 7.859375 42.859375 
Q 11.421875 50.875 18.03125 57.078125 
Q 24.65625 63.28125 30.703125 65.421875 
Q 36.765625 67.578125 42 67.578125 
z
M 14.453125 33.40625 
Q 13.578125 26.8125 13.578125 22.75 
Q 13.578125 18.0625 15.3125 12.5625 
Q 17.046875 7.078125 20.453125 3.859375 
Q 22.953125 1.5625 26.515625 1.5625 
Q 30.765625 1.5625 34.109375 5.5625 
Q 37.453125 9.578125 37.453125 17 
Q 37.453125 25.34375 34.125 31.4375 
Q 30.8125 37.546875 24.703125 37.546875 
Q 22.859375 37.546875 20.734375 36.765625 
Q 18.609375 35.984375 14.453125 33.40625 
z
" id="TimesNewRomanPSMT-36"/>
      </defs>
      <g transform="translate(239.33819 265.94375)scale(0.1 -0.1)">
       <use xlink:href="#TimesNewRomanPSMT-36"/>
       <use x="50" xlink:href="#TimesNewRomanPSMT-30"/>
       <use x="100" xlink:href="#TimesNewRomanPSMT-30"/>
       <use x="150" xlink:href="#TimesNewRomanPSMT-30"/>
       <use x="200" xlink:href="#TimesNewRomanPSMT-30"/>
      </g>
     </g>
    </g>
    <g id="xtick_5">
     <g id="line2d_5">
      <g>
       <use style="stroke:#000000;stroke-width:0.8;" x="312.711526" xlink:href="#m315d7a87e4" y="252"/>
      </g>
     </g>
     <g id="text_5">
      <!-- 80000 -->
      <defs>
       <path d="M 19.1875 33.34375 
Q 11.328125 39.796875 9.046875 43.703125 
Q 6.78125 47.609375 6.78125 51.8125 
Q 6.78125 58.25 11.765625 62.90625 
Q 16.75 67.578125 25 67.578125 
Q 33.015625 67.578125 37.890625 63.234375 
Q 42.78125 58.890625 42.78125 53.328125 
Q 42.78125 49.609375 40.140625 45.75 
Q 37.5 41.890625 29.15625 36.671875 
Q 37.75 30.03125 40.53125 26.21875 
Q 44.234375 21.234375 44.234375 15.71875 
Q 44.234375 8.734375 38.90625 3.78125 
Q 33.59375 -1.171875 24.953125 -1.171875 
Q 15.53125 -1.171875 10.25 4.734375 
Q 6.0625 9.46875 6.0625 15.09375 
Q 6.0625 19.484375 9.015625 23.796875 
Q 11.96875 28.125 19.1875 33.34375 
z
M 26.859375 38.578125 
Q 32.71875 43.84375 34.28125 46.890625 
Q 35.84375 49.953125 35.84375 53.8125 
Q 35.84375 58.9375 32.953125 61.84375 
Q 30.078125 64.75 25.09375 64.75 
Q 20.125 64.75 17 61.859375 
Q 13.875 58.984375 13.875 55.125 
Q 13.875 52.59375 15.15625 50.046875 
Q 16.453125 47.515625 18.84375 45.21875 
z
M 21.484375 31.5 
Q 17.4375 28.078125 15.484375 24.046875 
Q 13.53125 20.015625 13.53125 15.328125 
Q 13.53125 9.03125 16.96875 5.25 
Q 20.40625 1.46875 25.734375 1.46875 
Q 31 1.46875 34.171875 4.4375 
Q 37.359375 7.421875 37.359375 11.671875 
Q 37.359375 15.1875 35.5 17.96875 
Q 32.03125 23.140625 21.484375 31.5 
z
" id="TimesNewRomanPSMT-38"/>
      </defs>
      <g transform="translate(300.211526 265.94375)scale(0.1 -0.1)">
       <use xlink:href="#TimesNewRomanPSMT-38"/>
       <use x="50" xlink:href="#TimesNewRomanPSMT-30"/>
       <use x="100" xlink:href="#TimesNewRomanPSMT-30"/>
       <use x="150" xlink:href="#TimesNewRomanPSMT-30"/>
       <use x="200" xlink:href="#TimesNewRomanPSMT-30"/>
      </g>
     </g>
    </g>
    <g id="xtick_6">
     <g id="line2d_6">
      <g>
       <use style="stroke:#000000;stroke-width:0.8;" x="373.584862" xlink:href="#m315d7a87e4" y="252"/>
      </g>
     </g>
     <g id="text_6">
      <!-- 100000 -->
      <defs>
       <path d="M 11.71875 59.71875 
L 27.828125 67.578125 
L 29.4375 67.578125 
L 29.4375 11.671875 
Q 29.4375 6.109375 29.90625 4.734375 
Q 30.375 3.375 31.828125 2.640625 
Q 33.296875 1.90625 37.796875 1.8125 
L 37.796875 0 
L 12.890625 0 
L 12.890625 1.8125 
Q 17.578125 1.90625 18.9375 2.609375 
Q 20.3125 3.328125 20.84375 4.515625 
Q 21.390625 5.71875 21.390625 11.671875 
L 21.390625 47.40625 
Q 21.390625 54.640625 20.90625 56.6875 
Q 20.5625 58.25 19.65625 58.984375 
Q 18.75 59.71875 17.484375 59.71875 
Q 15.671875 59.71875 12.453125 58.203125 
z
" id="TimesNewRomanPSMT-31"/>
      </defs>
      <g transform="translate(358.584862 265.94375)scale(0.1 -0.1)">
       <use xlink:href="#TimesNewRomanPSMT-31"/>
       <use x="50" xlink:href="#TimesNewRomanPSMT-30"/>
       <use x="100" xlink:href="#TimesNewRomanPSMT-30"/>
       <use x="150" xlink:href="#TimesNewRomanPSMT-30"/>
       <use x="200" xlink:href="#TimesNewRomanPSMT-30"/>
       <use x="250" xlink:href="#TimesNewRomanPSMT-30"/>
      </g>
     </g>
    </g>
    <g id="text_7">
     <!-- Time (s) -->
     <defs>
      <path d="M 57.859375 66.21875 
L 58.59375 50.6875 
L 56.734375 50.6875 
Q 56.203125 54.78125 55.28125 56.546875 
Q 53.765625 59.375 51.25 60.71875 
Q 48.734375 62.0625 44.625 62.0625 
L 35.296875 62.0625 
L 35.296875 11.46875 
Q 35.296875 5.375 36.625 3.859375 
Q 38.484375 1.8125 42.328125 1.8125 
L 44.625 1.8125 
L 44.625 0 
L 16.546875 0 
L 16.546875 1.8125 
L 18.890625 1.8125 
Q 23.09375 1.8125 24.859375 4.34375 
Q 25.921875 5.90625 25.921875 11.46875 
L 25.921875 62.0625 
L 17.96875 62.0625 
Q 13.328125 62.0625 11.375 61.375 
Q 8.84375 60.453125 7.03125 57.8125 
Q 5.21875 55.171875 4.890625 50.6875 
L 3.03125 50.6875 
L 3.8125 66.21875 
z
" id="TimesNewRomanPSMT-54"/>
      <path d="M 14.5 69.4375 
Q 16.546875 69.4375 17.984375 67.984375 
Q 19.4375 66.546875 19.4375 64.5 
Q 19.4375 62.453125 17.984375 60.984375 
Q 16.546875 59.515625 14.5 59.515625 
Q 12.453125 59.515625 10.984375 60.984375 
Q 9.515625 62.453125 9.515625 64.5 
Q 9.515625 66.546875 10.953125 67.984375 
Q 12.40625 69.4375 14.5 69.4375 
z
M 18.5625 46.046875 
L 18.5625 10.109375 
Q 18.5625 5.90625 19.171875 4.515625 
Q 19.78125 3.125 20.96875 2.4375 
Q 22.171875 1.765625 25.34375 1.765625 
L 25.34375 0 
L 3.609375 0 
L 3.609375 1.765625 
Q 6.890625 1.765625 8 2.390625 
Q 9.125 3.03125 9.78125 4.484375 
Q 10.453125 5.953125 10.453125 10.109375 
L 10.453125 27.34375 
Q 10.453125 34.625 10.015625 36.765625 
Q 9.671875 38.328125 8.9375 38.9375 
Q 8.203125 39.546875 6.9375 39.546875 
Q 5.5625 39.546875 3.609375 38.8125 
L 2.9375 40.578125 
L 16.40625 46.046875 
z
" id="TimesNewRomanPSMT-69"/>
      <path d="M 16.40625 36.53125 
Q 21.296875 41.40625 22.171875 42.140625 
Q 24.359375 44 26.890625 45.015625 
Q 29.4375 46.046875 31.9375 46.046875 
Q 36.140625 46.046875 39.15625 43.59375 
Q 42.1875 41.15625 43.21875 36.53125 
Q 48.25 42.390625 51.703125 44.21875 
Q 55.171875 46.046875 58.84375 46.046875 
Q 62.40625 46.046875 65.15625 44.21875 
Q 67.921875 42.390625 69.53125 38.234375 
Q 70.609375 35.40625 70.609375 29.34375 
L 70.609375 10.109375 
Q 70.609375 5.90625 71.234375 4.34375 
Q 71.734375 3.265625 73.046875 2.515625 
Q 74.359375 1.765625 77.34375 1.765625 
L 77.34375 0 
L 55.28125 0 
L 55.28125 1.765625 
L 56.203125 1.765625 
Q 59.078125 1.765625 60.6875 2.875 
Q 61.8125 3.65625 62.3125 5.375 
Q 62.5 6.203125 62.5 10.109375 
L 62.5 29.34375 
Q 62.5 34.8125 61.1875 37.0625 
Q 59.28125 40.1875 55.078125 40.1875 
Q 52.484375 40.1875 49.875 38.890625 
Q 47.265625 37.59375 43.5625 34.078125 
L 43.453125 33.546875 
L 43.5625 31.453125 
L 43.5625 10.109375 
Q 43.5625 5.515625 44.0625 4.390625 
Q 44.578125 3.265625 45.984375 2.515625 
Q 47.40625 1.765625 50.828125 1.765625 
L 50.828125 0 
L 28.21875 0 
L 28.21875 1.765625 
Q 31.9375 1.765625 33.328125 2.640625 
Q 34.71875 3.515625 35.25 5.28125 
Q 35.5 6.109375 35.5 10.109375 
L 35.5 29.34375 
Q 35.5 34.8125 33.890625 37.203125 
Q 31.734375 40.328125 27.875 40.328125 
Q 25.25 40.328125 22.65625 38.921875 
Q 18.609375 36.765625 16.40625 34.078125 
L 16.40625 10.109375 
Q 16.40625 5.71875 17.015625 4.390625 
Q 17.625 3.078125 18.8125 2.421875 
Q 20.015625 1.765625 23.6875 1.765625 
L 23.6875 0 
L 1.5625 0 
L 1.5625 1.765625 
Q 4.640625 1.765625 5.859375 2.421875 
Q 7.078125 3.078125 7.703125 4.515625 
Q 8.34375 5.953125 8.34375 10.109375 
L 8.34375 27.203125 
Q 8.34375 34.578125 7.90625 36.71875 
Q 7.5625 38.328125 6.828125 38.9375 
Q 6.109375 39.546875 4.828125 39.546875 
Q 3.46875 39.546875 1.5625 38.8125 
L 0.828125 40.578125 
L 14.3125 46.046875 
L 16.40625 46.046875 
z
" id="TimesNewRomanPSMT-6d"/>
      <path d="M 10.640625 27.875 
Q 10.59375 17.921875 15.484375 12.25 
Q 20.359375 6.59375 26.953125 6.59375 
Q 31.34375 6.59375 34.59375 9 
Q 37.84375 11.421875 40.046875 17.28125 
L 41.546875 16.3125 
Q 40.53125 9.625 35.59375 4.125 
Q 30.671875 -1.375 23.25 -1.375 
Q 15.1875 -1.375 9.453125 4.90625 
Q 3.71875 11.1875 3.71875 21.78125 
Q 3.71875 33.25 9.59375 39.671875 
Q 15.484375 46.09375 24.359375 46.09375 
Q 31.890625 46.09375 36.71875 41.140625 
Q 41.546875 36.1875 41.546875 27.875 
z
M 10.640625 30.71875 
L 31.34375 30.71875 
Q 31.109375 35.015625 30.328125 36.765625 
Q 29.109375 39.5 26.6875 41.0625 
Q 24.265625 42.625 21.625 42.625 
Q 17.578125 42.625 14.375 39.46875 
Q 11.1875 36.328125 10.640625 30.71875 
z
" id="TimesNewRomanPSMT-65"/>
      <path id="TimesNewRomanPSMT-20"/>
      <path d="M 31.0625 -19.578125 
L 31.0625 -21.390625 
Q 23.6875 -17.671875 18.75 -12.703125 
Q 11.71875 -5.609375 7.90625 4 
Q 4.109375 13.625 4.109375 23.96875 
Q 4.109375 39.109375 11.578125 51.578125 
Q 19.046875 64.0625 31.0625 69.4375 
L 31.0625 67.390625 
Q 25.046875 64.0625 21.1875 58.296875 
Q 17.328125 52.546875 15.421875 43.703125 
Q 13.53125 34.859375 13.53125 25.25 
Q 13.53125 14.796875 15.140625 6.25 
Q 16.40625 -0.484375 18.203125 -4.5625 
Q 20.015625 -8.640625 23.0625 -12.390625 
Q 26.125 -16.15625 31.0625 -19.578125 
z
" id="TimesNewRomanPSMT-28"/>
      <path d="M 32.03125 46.046875 
L 32.03125 30.8125 
L 30.421875 30.8125 
Q 28.5625 37.984375 25.65625 40.578125 
Q 22.75 43.171875 18.265625 43.171875 
Q 14.84375 43.171875 12.734375 41.359375 
Q 10.640625 39.546875 10.640625 37.359375 
Q 10.640625 34.625 12.203125 32.671875 
Q 13.71875 30.671875 18.359375 28.421875 
L 25.484375 24.953125 
Q 35.40625 20.125 35.40625 12.203125 
Q 35.40625 6.109375 30.78125 2.359375 
Q 26.171875 -1.375 20.453125 -1.375 
Q 16.359375 -1.375 11.078125 0.09375 
Q 9.46875 0.59375 8.453125 0.59375 
Q 7.328125 0.59375 6.6875 -0.6875 
L 5.078125 -0.6875 
L 5.078125 15.28125 
L 6.6875 15.28125 
Q 8.0625 8.453125 11.90625 4.984375 
Q 15.765625 1.515625 20.5625 1.515625 
Q 23.921875 1.515625 26.046875 3.484375 
Q 28.171875 5.46875 28.171875 8.25 
Q 28.171875 11.625 25.796875 13.921875 
Q 23.4375 16.21875 16.359375 19.734375 
Q 9.28125 23.25 7.078125 26.078125 
Q 4.890625 28.859375 4.890625 33.109375 
Q 4.890625 38.625 8.671875 42.328125 
Q 12.453125 46.046875 18.453125 46.046875 
Q 21.09375 46.046875 24.859375 44.921875 
Q 27.34375 44.1875 28.171875 44.1875 
Q 28.953125 44.1875 29.390625 44.53125 
Q 29.828125 44.875 30.421875 46.046875 
z
" id="TimesNewRomanPSMT-73"/>
      <path d="M 2.25 67.390625 
L 2.25 69.4375 
Q 9.671875 65.765625 14.59375 60.796875 
Q 21.578125 53.65625 25.390625 44.0625 
Q 29.203125 34.46875 29.203125 24.078125 
Q 29.203125 8.9375 21.75 -3.53125 
Q 14.3125 -16.015625 2.25 -21.390625 
L 2.25 -19.578125 
Q 8.25 -16.21875 12.125 -10.46875 
Q 16.015625 -4.734375 17.890625 4.125 
Q 19.78125 12.984375 19.78125 22.609375 
Q 19.78125 33.015625 18.171875 41.609375 
Q 16.9375 48.34375 15.109375 52.390625 
Q 13.28125 56.453125 10.25 60.203125 
Q 7.234375 63.96875 2.25 67.390625 
z
" id="TimesNewRomanPSMT-29"/>
     </defs>
     <g transform="translate(200.91 280.415313)scale(0.12 -0.12)">
      <use xlink:href="#TimesNewRomanPSMT-54"/>
      <use x="61.037109" xlink:href="#TimesNewRomanPSMT-69"/>
      <use x="88.820312" xlink:href="#TimesNewRomanPSMT-6d"/>
      <use x="166.603516" xlink:href="#TimesNewRomanPSMT-65"/>
      <use x="210.988281" xlink:href="#TimesNewRomanPSMT-20"/>
      <use x="235.988281" xlink:href="#TimesNewRomanPSMT-28"/>
      <use x="269.289062" xlink:href="#TimesNewRomanPSMT-73"/>
      <use x="308.205078" xlink:href="#TimesNewRomanPSMT-29"/>
     </g>
    </g>
   </g>
   <g id="matplotlib.axis_2">
    <g id="ytick_1">
     <g id="line2d_7">
      <defs>
       <path d="M 0 0 
L -3.5 0 
" id="m586ed0887b" style="stroke:#000000;stroke-width:0.8;"/>
      </defs>
      <g>
       <use style="stroke:#000000;stroke-width:0.8;" x="54" xlink:href="#m586ed0887b" y="242.116364"/>
      </g>
     </g>
     <g id="text_8">
      <!-- 0.0 -->
      <defs>
       <path d="M 12.5 9.46875 
Q 14.796875 9.46875 16.359375 7.875 
Q 17.921875 6.296875 17.921875 4.046875 
Q 17.921875 1.8125 16.328125 0.21875 
Q 14.75 -1.375 12.5 -1.375 
Q 10.25 -1.375 8.65625 0.21875 
Q 7.078125 1.8125 7.078125 4.046875 
Q 7.078125 6.34375 8.65625 7.90625 
Q 10.25 9.46875 12.5 9.46875 
z
" id="TimesNewRomanPSMT-2e"/>
      </defs>
      <g transform="translate(34.5 245.588239)scale(0.1 -0.1)">
       <use xlink:href="#TimesNewRomanPSMT-30"/>
       <use x="50" xlink:href="#TimesNewRomanPSMT-2e"/>
       <use x="75" xlink:href="#TimesNewRomanPSMT-30"/>
      </g>
     </g>
    </g>
    <g id="ytick_2">
     <g id="line2d_8">
      <g>
       <use style="stroke:#000000;stroke-width:0.8;" x="54" xlink:href="#m586ed0887b" y="213.289145"/>
      </g>
     </g>
     <g id="text_9">
      <!-- 0.2 -->
      <g transform="translate(34.5 216.76102)scale(0.1 -0.1)">
       <use xlink:href="#TimesNewRomanPSMT-30"/>
       <use x="50" xlink:href="#TimesNewRomanPSMT-2e"/>
       <use x="75" xlink:href="#TimesNewRomanPSMT-32"/>
      </g>
     </g>
    </g>
    <g id="ytick_3">
     <g id="line2d_9">
      <g>
       <use style="stroke:#000000;stroke-width:0.8;" x="54" xlink:href="#m586ed0887b" y="184.461926"/>
      </g>
     </g>
     <g id="text_10">
      <!-- 0.4 -->
      <g transform="translate(34.5 187.933801)scale(0.1 -0.1)">
       <use xlink:href="#TimesNewRomanPSMT-30"/>
       <use x="50" xlink:href="#TimesNewRomanPSMT-2e"/>
       <use x="75" xlink:href="#TimesNewRomanPSMT-34"/>
      </g>
     </g>
    </g>
    <g id="ytick_4">
     <g id="line2d_10">
      <g>
       <use style="stroke:#000000;stroke-width:0.8;" x="54" xlink:href="#m586ed0887b" y="155.634706"/>
      </g>
     </g>
     <g id="text_11">
      <!-- 0.6 -->
      <g transform="translate(34.5 159.106581)scale(0.1 -0.1)">
       <use xlink:href="#TimesNewRomanPSMT-30"/>
       <use x="50" xlink:href="#TimesNewRomanPSMT-2e"/>
       <use x="75" xlink:href="#TimesNewRomanPSMT-36"/>
      </g>
     </g>
    </g>
    <g id="ytick_5">
     <g id="line2d_11">
      <g>
       <use style="stroke:#000000;stroke-width:0.8;" x="54" xlink:href="#m586ed0887b" y="126.807487"/>
      </g>
     </g>
     <g id="text_12">
      <!-- 0.8 -->
      <g transform="translate(34.5 130.279362)scale(0.1 -0.1)">
       <use xlink:href="#TimesNewRomanPSMT-30"/>
       <use x="50" xlink:href="#TimesNewRomanPSMT-2e"/>
       <use x="75" xlink:href="#TimesNewRomanPSMT-38"/>
      </g>
     </g>
    </g>
    <g id="ytick_6">
     <g id="line2d_12">
      <g>
       <use style="stroke:#000000;stroke-width:0.8;" x="54" xlink:href="#m586ed0887b" y="97.980268"/>
      </g>
     </g>
     <g id="text_13">
      <!-- 1.0 -->
      <g transform="translate(34.5 101.452143)scale(0.1 -0.1)">
       <use xlink:href="#TimesNewRomanPSMT-31"/>
       <use x="50" xlink:href="#TimesNewRomanPSMT-2e"/>
       <use x="75" xlink:href="#TimesNewRomanPSMT-30"/>
      </g>
     </g>
    </g>
    <g id="ytick_7">
     <g id="line2d_13">
      <g>
       <use style="stroke:#000000;stroke-width:0.8;" x="54" xlink:href="#m586ed0887b" y="69.153049"/>
      </g>
     </g>
     <g id="text_14">
      <!-- 1.2 -->
      <g transform="translate(34.5 72.624924)scale(0.1 -0.1)">
       <use xlink:href="#TimesNewRomanPSMT-31"/>
       <use x="50" xlink:href="#TimesNewRomanPSMT-2e"/>
       <use x="75" xlink:href="#TimesNewRomanPSMT-32"/>
      </g>
     </g>
    </g>
    <g id="ytick_8">
     <g id="line2d_14">
      <g>
       <use style="stroke:#000000;stroke-width:0.8;" x="54" xlink:href="#m586ed0887b" y="40.32583"/>
      </g>
     </g>
     <g id="text_15">
      <!-- 1.4 -->
      <g transform="translate(34.5 43.797705)scale(0.1 -0.1)">
       <use xlink:href="#TimesNewRomanPSMT-31"/>
       <use x="50" xlink:href="#TimesNewRomanPSMT-2e"/>
       <use x="75" xlink:href="#TimesNewRomanPSMT-34"/>
      </g>
     </g>
    </g>
    <g id="text_16">
     <!-- Concentration (nM) -->
     <defs>
      <path d="M 60.203125 67.71875 
L 61.71875 45.21875 
L 60.203125 45.21875 
Q 57.171875 55.328125 51.5625 59.765625 
Q 45.953125 64.203125 38.09375 64.203125 
Q 31.5 64.203125 26.171875 60.859375 
Q 20.84375 57.515625 17.796875 50.1875 
Q 14.75 42.875 14.75 31.984375 
Q 14.75 23 17.625 16.40625 
Q 20.515625 9.8125 26.296875 6.296875 
Q 32.078125 2.78125 39.5 2.78125 
Q 45.953125 2.78125 50.875 5.53125 
Q 55.8125 8.296875 61.71875 16.5 
L 63.234375 15.53125 
Q 58.25 6.6875 51.609375 2.578125 
Q 44.96875 -1.515625 35.84375 -1.515625 
Q 19.390625 -1.515625 10.359375 10.6875 
Q 3.609375 19.78125 3.609375 32.078125 
Q 3.609375 42 8.046875 50.296875 
Q 12.5 58.59375 20.28125 63.15625 
Q 28.078125 67.71875 37.3125 67.71875 
Q 44.484375 67.71875 51.46875 64.203125 
Q 53.515625 63.140625 54.390625 63.140625 
Q 55.71875 63.140625 56.6875 64.0625 
Q 57.953125 65.375 58.5 67.71875 
z
" id="TimesNewRomanPSMT-43"/>
      <path d="M 25 46.046875 
Q 35.15625 46.046875 41.3125 38.328125 
Q 46.53125 31.734375 46.53125 23.1875 
Q 46.53125 17.1875 43.640625 11.03125 
Q 40.765625 4.890625 35.71875 1.75 
Q 30.671875 -1.375 24.46875 -1.375 
Q 14.359375 -1.375 8.40625 6.6875 
Q 3.375 13.484375 3.375 21.921875 
Q 3.375 28.078125 6.421875 34.15625 
Q 9.46875 40.234375 14.453125 43.140625 
Q 19.4375 46.046875 25 46.046875 
z
M 23.484375 42.875 
Q 20.90625 42.875 18.28125 41.328125 
Q 15.671875 39.796875 14.0625 35.9375 
Q 12.453125 32.078125 12.453125 26.03125 
Q 12.453125 16.265625 16.328125 9.171875 
Q 20.21875 2.09375 26.5625 2.09375 
Q 31.296875 2.09375 34.375 6 
Q 37.453125 9.90625 37.453125 19.4375 
Q 37.453125 31.34375 32.328125 38.1875 
Q 28.859375 42.875 23.484375 42.875 
z
" id="TimesNewRomanPSMT-6f"/>
      <path d="M 16.15625 36.578125 
Q 24.03125 46.046875 31.15625 46.046875 
Q 34.8125 46.046875 37.453125 44.21875 
Q 40.09375 42.390625 41.65625 38.1875 
Q 42.71875 35.25 42.71875 29.203125 
L 42.71875 10.109375 
Q 42.71875 5.859375 43.40625 4.34375 
Q 43.953125 3.125 45.140625 2.4375 
Q 46.34375 1.765625 49.5625 1.765625 
L 49.5625 0 
L 27.4375 0 
L 27.4375 1.765625 
L 28.375 1.765625 
Q 31.5 1.765625 32.734375 2.703125 
Q 33.984375 3.65625 34.46875 5.515625 
Q 34.671875 6.25 34.671875 10.109375 
L 34.671875 28.421875 
Q 34.671875 34.515625 33.078125 37.28125 
Q 31.5 40.046875 27.734375 40.046875 
Q 21.921875 40.046875 16.15625 33.6875 
L 16.15625 10.109375 
Q 16.15625 5.5625 16.703125 4.5 
Q 17.390625 3.078125 18.578125 2.421875 
Q 19.78125 1.765625 23.4375 1.765625 
L 23.4375 0 
L 1.3125 0 
L 1.3125 1.765625 
L 2.296875 1.765625 
Q 5.71875 1.765625 6.90625 3.484375 
Q 8.109375 5.21875 8.109375 10.109375 
L 8.109375 26.703125 
Q 8.109375 34.765625 7.734375 36.515625 
Q 7.375 38.28125 6.609375 38.90625 
Q 5.859375 39.546875 4.59375 39.546875 
Q 3.21875 39.546875 1.3125 38.8125 
L 0.59375 40.578125 
L 14.0625 46.046875 
L 16.15625 46.046875 
z
" id="TimesNewRomanPSMT-6e"/>
      <path d="M 41.109375 17 
Q 39.3125 8.15625 34.03125 3.390625 
Q 28.765625 -1.375 22.359375 -1.375 
Q 14.75 -1.375 9.078125 5.015625 
Q 3.421875 11.421875 3.421875 22.3125 
Q 3.421875 32.859375 9.6875 39.453125 
Q 15.96875 46.046875 24.75 46.046875 
Q 31.34375 46.046875 35.59375 42.546875 
Q 39.84375 39.0625 39.84375 35.296875 
Q 39.84375 33.453125 38.640625 32.296875 
Q 37.453125 31.15625 35.296875 31.15625 
Q 32.421875 31.15625 30.953125 33.015625 
Q 30.125 34.03125 29.859375 36.90625 
Q 29.59375 39.796875 27.875 41.3125 
Q 26.171875 42.78125 23.140625 42.78125 
Q 18.265625 42.78125 15.28125 39.15625 
Q 11.328125 34.375 11.328125 26.515625 
Q 11.328125 18.5 15.25 12.375 
Q 19.1875 6.25 25.875 6.25 
Q 30.671875 6.25 34.46875 9.515625 
Q 37.15625 11.765625 39.703125 17.671875 
z
" id="TimesNewRomanPSMT-63"/>
      <path d="M 16.109375 59.421875 
L 16.109375 44.734375 
L 26.5625 44.734375 
L 26.5625 41.3125 
L 16.109375 41.3125 
L 16.109375 12.3125 
Q 16.109375 7.953125 17.359375 6.4375 
Q 18.609375 4.9375 20.5625 4.9375 
Q 22.171875 4.9375 23.6875 5.9375 
Q 25.203125 6.9375 26.03125 8.890625 
L 27.9375 8.890625 
Q 26.21875 4.109375 23.09375 1.6875 
Q 19.96875 -0.734375 16.65625 -0.734375 
Q 14.40625 -0.734375 12.25 0.515625 
Q 10.109375 1.765625 9.078125 4.078125 
Q 8.0625 6.390625 8.0625 11.234375 
L 8.0625 41.3125 
L 0.984375 41.3125 
L 0.984375 42.921875 
Q 3.65625 44 6.46875 46.5625 
Q 9.28125 49.125 11.46875 52.640625 
Q 12.59375 54.5 14.59375 59.421875 
z
" id="TimesNewRomanPSMT-74"/>
      <path d="M 16.21875 46.046875 
L 16.21875 35.984375 
Q 21.828125 46.046875 27.734375 46.046875 
Q 30.421875 46.046875 32.171875 44.40625 
Q 33.9375 42.78125 33.9375 40.625 
Q 33.9375 38.71875 32.65625 37.390625 
Q 31.390625 36.078125 29.640625 36.078125 
Q 27.9375 36.078125 25.8125 37.765625 
Q 23.6875 39.453125 22.65625 39.453125 
Q 21.78125 39.453125 20.75 38.484375 
Q 18.5625 36.46875 16.21875 31.890625 
L 16.21875 10.453125 
Q 16.21875 6.734375 17.140625 4.828125 
Q 17.78125 3.515625 19.390625 2.640625 
Q 21 1.765625 24.03125 1.765625 
L 24.03125 0 
L 1.125 0 
L 1.125 1.765625 
Q 4.546875 1.765625 6.203125 2.828125 
Q 7.421875 3.609375 7.90625 5.328125 
Q 8.15625 6.15625 8.15625 10.0625 
L 8.15625 27.390625 
Q 8.15625 35.203125 7.828125 36.6875 
Q 7.515625 38.1875 6.65625 38.859375 
Q 5.8125 39.546875 4.546875 39.546875 
Q 3.03125 39.546875 1.125 38.8125 
L 0.640625 40.578125 
L 14.15625 46.046875 
z
" id="TimesNewRomanPSMT-72"/>
      <path d="M 28.46875 6.453125 
Q 21.578125 1.125 19.828125 0.296875 
Q 17.1875 -0.921875 14.203125 -0.921875 
Q 9.578125 -0.921875 6.5625 2.25 
Q 3.5625 5.421875 3.5625 10.59375 
Q 3.5625 13.875 5.03125 16.265625 
Q 7.03125 19.578125 11.984375 22.5 
Q 16.9375 25.4375 28.46875 29.640625 
L 28.46875 31.390625 
Q 28.46875 38.09375 26.34375 40.578125 
Q 24.21875 43.0625 20.171875 43.0625 
Q 17.09375 43.0625 15.28125 41.40625 
Q 13.421875 39.75 13.421875 37.59375 
L 13.53125 34.765625 
Q 13.53125 32.515625 12.375 31.296875 
Q 11.234375 30.078125 9.375 30.078125 
Q 7.5625 30.078125 6.421875 31.34375 
Q 5.28125 32.625 5.28125 34.8125 
Q 5.28125 39.015625 9.578125 42.53125 
Q 13.875 46.046875 21.625 46.046875 
Q 27.59375 46.046875 31.390625 44.046875 
Q 34.28125 42.53125 35.640625 39.3125 
Q 36.53125 37.203125 36.53125 30.71875 
L 36.53125 15.53125 
Q 36.53125 9.125 36.765625 7.6875 
Q 37.015625 6.25 37.578125 5.765625 
Q 38.140625 5.28125 38.875 5.28125 
Q 39.65625 5.28125 40.234375 5.609375 
Q 41.265625 6.25 44.1875 9.1875 
L 44.1875 6.453125 
Q 38.71875 -0.875 33.734375 -0.875 
Q 31.34375 -0.875 29.921875 0.78125 
Q 28.515625 2.4375 28.46875 6.453125 
z
M 28.46875 9.625 
L 28.46875 26.65625 
Q 21.09375 23.734375 18.953125 22.515625 
Q 15.09375 20.359375 13.421875 18.015625 
Q 11.765625 15.671875 11.765625 12.890625 
Q 11.765625 9.375 13.859375 7.046875 
Q 15.96875 4.734375 18.703125 4.734375 
Q 22.40625 4.734375 28.46875 9.625 
z
" id="TimesNewRomanPSMT-61"/>
      <path d="M 40.921875 0 
L 15.328125 55.71875 
L 15.328125 11.46875 
Q 15.328125 5.375 16.65625 3.859375 
Q 18.453125 1.8125 22.359375 1.8125 
L 24.703125 1.8125 
L 24.703125 0 
L 1.65625 0 
L 1.65625 1.8125 
L 4 1.8125 
Q 8.203125 1.8125 9.96875 4.34375 
Q 11.03125 5.90625 11.03125 11.46875 
L 11.03125 54.734375 
Q 11.03125 59.125 10.0625 61.078125 
Q 9.375 62.5 7.546875 63.453125 
Q 5.71875 64.40625 1.65625 64.40625 
L 1.65625 66.21875 
L 20.40625 66.21875 
L 44.4375 14.40625 
L 68.0625 66.21875 
L 86.8125 66.21875 
L 86.8125 64.40625 
L 84.515625 64.40625 
Q 80.28125 64.40625 78.515625 61.859375 
Q 77.4375 60.296875 77.4375 54.734375 
L 77.4375 11.46875 
Q 77.4375 5.375 78.8125 3.859375 
Q 80.609375 1.8125 84.515625 1.8125 
L 86.8125 1.8125 
L 86.8125 0 
L 58.6875 0 
L 58.6875 1.8125 
L 61.03125 1.8125 
Q 65.28125 1.8125 67 4.34375 
Q 68.0625 5.90625 68.0625 11.46875 
L 68.0625 55.71875 
L 42.53125 0 
z
" id="TimesNewRomanPSMT-4d"/>
     </defs>
     <g transform="translate(27.933125 191.101875)rotate(-90)scale(0.12 -0.12)">
      <use xlink:href="#TimesNewRomanPSMT-43"/>
      <use x="66.699219" xlink:href="#TimesNewRomanPSMT-6f"/>
      <use x="116.699219" xlink:href="#TimesNewRomanPSMT-6e"/>
      <use x="166.699219" xlink:href="#TimesNewRomanPSMT-63"/>
      <use x="211.083984" xlink:href="#TimesNewRomanPSMT-65"/>
      <use x="255.46875" xlink:href="#TimesNewRomanPSMT-6e"/>
      <use x="305.46875" xlink:href="#TimesNewRomanPSMT-74"/>
      <use x="333.251953" xlink:href="#TimesNewRomanPSMT-72"/>
      <use x="366.552734" xlink:href="#TimesNewRomanPSMT-61"/>
      <use x="410.9375" xlink:href="#TimesNewRomanPSMT-74"/>
      <use x="438.720703" xlink:href="#TimesNewRomanPSMT-69"/>
      <use x="466.503906" xlink:href="#TimesNewRomanPSMT-6f"/>
      <use x="516.503906" xlink:href="#TimesNewRomanPSMT-6e"/>
      <use x="566.503906" xlink:href="#TimesNewRomanPSMT-20"/>
      <use x="591.503906" xlink:href="#TimesNewRomanPSMT-28"/>
      <use x="624.804688" xlink:href="#TimesNewRomanPSMT-6e"/>
      <use x="674.804688" xlink:href="#TimesNewRomanPSMT-4d"/>
      <use x="763.720703" xlink:href="#TimesNewRomanPSMT-29"/>
     </g>
    </g>
   </g>
   <g id="line2d_15">
    <path clip-path="url(#p27b62dd651)" d="M 69.218182 242.116364 
L 69.269924 241.992134 
L 69.504286 241.760183 
L 70.663924 240.966701 
L 72.468818 239.999486 
L 75.177681 238.818118 
L 79.216627 237.315069 
L 84.886979 235.453782 
L 91.981766 233.363903 
L 99.877037 231.271226 
L 108.164942 229.306142 
L 116.638511 227.526531 
L 125.331223 225.928769 
L 134.334389 224.501319 
L 143.73932 223.236185 
L 153.759071 222.114806 
L 164.561044 221.132995 
L 176.397865 220.283584 
L 189.637815 219.559497 
L 204.913979 218.953058 
L 223.066408 218.462057 
L 245.726507 218.08169 
L 275.998817 217.809748 
L 321.75426 217.641553 
L 373.581818 217.583268 
L 373.581818 217.583268 
" style="fill:none;stroke:#008000;stroke-linecap:square;stroke-width:2;"/>
    <defs>
     <path d="M 0 -3 
L -0.673542 -0.927051 
L -2.85317 -0.927051 
L -1.089814 0.354102 
L -1.763356 2.427051 
L -0 1.145898 
L 1.763356 2.427051 
L 1.089814 0.354102 
L 2.85317 -0.927051 
L 0.673542 -0.927051 
z
" id="mffa2622201" style="stroke:#008000;stroke-linejoin:bevel;"/>
    </defs>
    <g clip-path="url(#p27b62dd651)">
     <use style="fill:#008000;stroke:#008000;stroke-linejoin:bevel;" x="69.218182" xlink:href="#mffa2622201" y="242.116364"/>
     <use style="fill:#008000;stroke:#008000;stroke-linejoin:bevel;" x="84.436516" xlink:href="#mffa2622201" y="235.594394"/>
     <use style="fill:#008000;stroke:#008000;stroke-linejoin:bevel;" x="99.65485" xlink:href="#mffa2622201" y="231.327057"/>
     <use style="fill:#008000;stroke:#008000;stroke-linejoin:bevel;" x="114.873184" xlink:href="#mffa2622201" y="227.87875"/>
     <use style="fill:#008000;stroke:#008000;stroke-linejoin:bevel;" x="130.091518" xlink:href="#mffa2622201" y="225.146358"/>
     <use style="fill:#008000;stroke:#008000;stroke-linejoin:bevel;" x="145.309852" xlink:href="#mffa2622201" y="223.045717"/>
     <use style="fill:#008000;stroke:#008000;stroke-linejoin:bevel;" x="160.528186" xlink:href="#mffa2622201" y="221.474302"/>
     <use style="fill:#008000;stroke:#008000;stroke-linejoin:bevel;" x="175.74652" xlink:href="#mffa2622201" y="220.325005"/>
     <use style="fill:#008000;stroke:#008000;stroke-linejoin:bevel;" x="190.964854" xlink:href="#mffa2622201" y="219.498085"/>
     <use style="fill:#008000;stroke:#008000;stroke-linejoin:bevel;" x="206.183188" xlink:href="#mffa2622201" y="218.911565"/>
     <use style="fill:#008000;stroke:#008000;stroke-linejoin:bevel;" x="221.401522" xlink:href="#mffa2622201" y="218.4989"/>
     <use style="fill:#008000;stroke:#008000;stroke-linejoin:bevel;" x="236.619856" xlink:href="#mffa2622201" y="218.210634"/>
     <use style="fill:#008000;stroke:#008000;stroke-linejoin:bevel;" x="251.83819" xlink:href="#mffa2622201" y="218.009791"/>
     <use style="fill:#008000;stroke:#008000;stroke-linejoin:bevel;" x="267.056524" xlink:href="#mffa2622201" y="217.870522"/>
     <use style="fill:#008000;stroke:#008000;stroke-linejoin:bevel;" x="282.274858" xlink:href="#mffa2622201" y="217.774228"/>
     <use style="fill:#008000;stroke:#008000;stroke-linejoin:bevel;" x="297.493192" xlink:href="#mffa2622201" y="217.7077"/>
     <use style="fill:#008000;stroke:#008000;stroke-linejoin:bevel;" x="312.711526" xlink:href="#mffa2622201" y="217.661781"/>
     <use style="fill:#008000;stroke:#008000;stroke-linejoin:bevel;" x="327.92986" xlink:href="#mffa2622201" y="217.630108"/>
     <use style="fill:#008000;stroke:#008000;stroke-linejoin:bevel;" x="343.148194" xlink:href="#mffa2622201" y="217.60827"/>
     <use style="fill:#008000;stroke:#008000;stroke-linejoin:bevel;" x="358.366528" xlink:href="#mffa2622201" y="217.593626"/>
    </g>
   </g>
   <g id="line2d_16">
    <path clip-path="url(#p27b62dd651)" d="M 69.218182 242.116364 
L 69.230356 242.10245 
L 69.239487 239.689787 
L 69.364278 223.09395 
L 69.720387 213.290743 
L 70.289553 203.687065 
L 71.010902 195.184765 
L 71.875303 187.589275 
L 72.901019 180.523555 
L 74.103267 173.78366 
L 75.488135 167.282386 
L 77.061711 160.956043 
L 78.839213 154.729206 
L 80.814552 148.617189 
L 82.990774 142.604906 
L 85.361791 136.706764 
L 87.915427 130.949283 
L 90.639509 125.354392 
L 93.521861 119.940993 
L 96.538135 114.746335 
L 99.724854 109.703367 
L 103.018102 104.912259 
L 106.417877 100.35945 
L 109.896789 96.070237 
L 113.491359 91.988942 
L 117.180283 88.136569 
L 120.939212 84.527543 
L 124.807712 81.117684 
L 128.797959 77.896026 
L 132.900822 74.86882 
L 137.131519 72.02388 
L 141.502225 69.353483 
L 146.034245 66.847228 
L 150.709317 64.515627 
L 155.585271 62.333212 
L 160.680369 60.297002 
L 166.022004 58.402463 
L 171.649744 56.643472 
L 177.654899 55.002351 
L 184.034425 53.492552 
L 190.81267 52.119029 
L 198.172257 50.857765 
L 206.183188 49.712881 
L 214.964167 48.685686 
L 224.743468 47.770004 
L 235.767629 46.966722 
L 248.484069 46.269208 
L 263.224547 45.690593 
L 281.121308 45.216435 
L 303.452691 44.852508 
L 333.633691 44.591159 
L 373.581818 44.443636 
L 373.581818 44.443636 
" style="fill:none;stroke:#ffa500;stroke-linecap:square;stroke-width:2;"/>
    <defs>
     <path d="M 0 2.5 
C 0.663008 2.5 1.29895 2.236584 1.767767 1.767767 
C 2.236584 1.29895 2.5 0.663008 2.5 0 
C 2.5 -0.663008 2.236584 -1.29895 1.767767 -1.767767 
C 1.29895 -2.236584 0.663008 -2.5 0 -2.5 
C -0.663008 -2.5 -1.29895 -2.236584 -1.767767 -1.767767 
C -2.236584 -1.29895 -2.5 -0.663008 -2.5 0 
C -2.5 0.663008 -2.236584 1.29895 -1.767767 1.767767 
C -1.29895 2.236584 -0.663008 2.5 0 2.5 
z
" id="mc04d1644a9" style="stroke:#ffa500;"/>
    </defs>
    <g clip-path="url(#p27b62dd651)">
     <use style="fill:#ffa500;stroke:#ffa500;" x="69.218182" xlink:href="#mc04d1644a9" y="242.116364"/>
     <use style="fill:#ffa500;stroke:#ffa500;" x="84.436516" xlink:href="#mc04d1644a9" y="138.937997"/>
     <use style="fill:#ffa500;stroke:#ffa500;" x="99.65485" xlink:href="#mc04d1644a9" y="109.809595"/>
     <use style="fill:#ffa500;stroke:#ffa500;" x="114.873184" xlink:href="#mc04d1644a9" y="90.507698"/>
     <use style="fill:#ffa500;stroke:#ffa500;" x="130.091518" xlink:href="#mc04d1644a9" y="76.911574"/>
     <use style="fill:#ffa500;stroke:#ffa500;" x="145.309852" xlink:href="#mc04d1644a9" y="67.231111"/>
     <use style="fill:#ffa500;stroke:#ffa500;" x="160.528186" xlink:href="#mc04d1644a9" y="60.354459"/>
     <use style="fill:#ffa500;stroke:#ffa500;" x="175.74652" xlink:href="#mc04d1644a9" y="55.499583"/>
     <use style="fill:#ffa500;stroke:#ffa500;" x="190.964854" xlink:href="#mc04d1644a9" y="52.090661"/>
     <use style="fill:#ffa500;stroke:#ffa500;" x="206.183188" xlink:href="#mc04d1644a9" y="49.712881"/>
     <use style="fill:#ffa500;stroke:#ffa500;" x="221.401522" xlink:href="#mc04d1644a9" y="48.05896"/>
     <use style="fill:#ffa500;stroke:#ffa500;" x="236.619856" xlink:href="#mc04d1644a9" y="46.913024"/>
     <use style="fill:#ffa500;stroke:#ffa500;" x="251.83819" xlink:href="#mc04d1644a9" y="46.118373"/>
     <use style="fill:#ffa500;stroke:#ffa500;" x="267.056524" xlink:href="#mc04d1644a9" y="45.570362"/>
     <use style="fill:#ffa500;stroke:#ffa500;" x="282.274858" xlink:href="#mc04d1644a9" y="45.192186"/>
     <use style="fill:#ffa500;stroke:#ffa500;" x="297.493192" xlink:href="#mc04d1644a9" y="44.931263"/>
     <use style="fill:#ffa500;stroke:#ffa500;" x="312.711526" xlink:href="#mc04d1644a9" y="44.75131"/>
     <use style="fill:#ffa500;stroke:#ffa500;" x="327.92986" xlink:href="#mc04d1644a9" y="44.627232"/>
     <use style="fill:#ffa500;stroke:#ffa500;" x="343.148194" xlink:href="#mc04d1644a9" y="44.541664"/>
     <use style="fill:#ffa500;stroke:#ffa500;" x="358.366528" xlink:href="#mc04d1644a9" y="44.484131"/>
    </g>
   </g>
   <g id="line2d_17">
    <path clip-path="url(#p27b62dd651)" d="M 69.218182 242.116364 
L 69.227313 242.013848 
L 69.239487 240.001044 
L 69.342972 241.639851 
L 69.966924 241.528709 
L 72.073141 241.380761 
L 78.175693 241.225418 
L 95.433284 241.051564 
L 135.591424 240.896807 
L 223.547307 240.81798 
L 373.581818 240.807721 
L 373.581818 240.807721 
" style="fill:none;stroke:#0000ff;stroke-linecap:square;stroke-width:2;"/>
    <defs>
     <path d="M 0 -2.5 
L -2.5 2.5 
L 2.5 2.5 
z
" id="m5a56f1a3ed" style="stroke:#0000ff;stroke-linejoin:miter;"/>
    </defs>
    <g clip-path="url(#p27b62dd651)">
     <use style="fill:#0000ff;stroke:#0000ff;stroke-linejoin:miter;" x="69.218182" xlink:href="#m5a56f1a3ed" y="242.116364"/>
     <use style="fill:#0000ff;stroke:#0000ff;stroke-linejoin:miter;" x="84.436516" xlink:href="#m5a56f1a3ed" y="241.143136"/>
     <use style="fill:#0000ff;stroke:#0000ff;stroke-linejoin:miter;" x="99.65485" xlink:href="#m5a56f1a3ed" y="241.025609"/>
     <use style="fill:#0000ff;stroke:#0000ff;stroke-linejoin:miter;" x="114.873184" xlink:href="#m5a56f1a3ed" y="240.95574"/>
     <use style="fill:#0000ff;stroke:#0000ff;stroke-linejoin:miter;" x="130.091518" xlink:href="#m5a56f1a3ed" y="240.909582"/>
     <use style="fill:#0000ff;stroke:#0000ff;stroke-linejoin:miter;" x="145.309852" xlink:href="#m5a56f1a3ed" y="240.878064"/>
     <use style="fill:#0000ff;stroke:#0000ff;stroke-linejoin:miter;" x="160.528186" xlink:href="#m5a56f1a3ed" y="240.85629"/>
     <use style="fill:#0000ff;stroke:#0000ff;stroke-linejoin:miter;" x="175.74652" xlink:href="#m5a56f1a3ed" y="240.84121"/>
     <use style="fill:#0000ff;stroke:#0000ff;stroke-linejoin:miter;" x="190.964854" xlink:href="#m5a56f1a3ed" y="240.830762"/>
     <use style="fill:#0000ff;stroke:#0000ff;stroke-linejoin:miter;" x="206.183188" xlink:href="#m5a56f1a3ed" y="240.823539"/>
     <use style="fill:#0000ff;stroke:#0000ff;stroke-linejoin:miter;" x="221.401522" xlink:href="#m5a56f1a3ed" y="240.818547"/>
     <use style="fill:#0000ff;stroke:#0000ff;stroke-linejoin:miter;" x="236.619856" xlink:href="#m5a56f1a3ed" y="240.815103"/>
     <use style="fill:#0000ff;stroke:#0000ff;stroke-linejoin:miter;" x="251.83819" xlink:href="#m5a56f1a3ed" y="240.81272"/>
     <use style="fill:#0000ff;stroke:#0000ff;stroke-linejoin:miter;" x="267.056524" xlink:href="#m5a56f1a3ed" y="240.811084"/>
     <use style="fill:#0000ff;stroke:#0000ff;stroke-linejoin:miter;" x="282.274858" xlink:href="#m5a56f1a3ed" y="240.809956"/>
     <use style="fill:#0000ff;stroke:#0000ff;stroke-linejoin:miter;" x="297.493192" xlink:href="#m5a56f1a3ed" y="240.809178"/>
     <use style="fill:#0000ff;stroke:#0000ff;stroke-linejoin:miter;" x="312.711526" xlink:href="#m5a56f1a3ed" y="240.808642"/>
     <use style="fill:#0000ff;stroke:#0000ff;stroke-linejoin:miter;" x="327.92986" xlink:href="#m5a56f1a3ed" y="240.808272"/>
     <use style="fill:#0000ff;stroke:#0000ff;stroke-linejoin:miter;" x="343.148194" xlink:href="#m5a56f1a3ed" y="240.808016"/>
     <use style="fill:#0000ff;stroke:#0000ff;stroke-linejoin:miter;" x="358.366528" xlink:href="#m5a56f1a3ed" y="240.807841"/>
    </g>
   </g>
   <g id="patch_3">
    <path d="M 54 252 
L 54 34.56 
" style="fill:none;stroke:#000000;stroke-linecap:square;stroke-linejoin:miter;stroke-width:0.8;"/>
   </g>
   <g id="patch_4">
    <path d="M 388.8 252 
L 388.8 34.56 
" style="fill:none;stroke:#000000;stroke-linecap:square;stroke-linejoin:miter;stroke-width:0.8;"/>
   </g>
   <g id="patch_5">
    <path d="M 54 252 
L 388.8 252 
" style="fill:none;stroke:#000000;stroke-linecap:square;stroke-linejoin:miter;stroke-width:0.8;"/>
   </g>
   <g id="patch_6">
    <path d="M 54 34.56 
L 388.8 34.56 
" style="fill:none;stroke:#000000;stroke-linecap:square;stroke-linejoin:miter;stroke-width:0.8;"/>
   </g>
   <g id="legend_1">
    <g id="patch_7">
     <path d="M 313.68125 165.988594 
L 381.8 165.988594 
Q 383.8 165.988594 383.8 163.988594 
L 383.8 122.571406 
Q 383.8 120.571406 381.8 120.571406 
L 313.68125 120.571406 
Q 311.68125 120.571406 311.68125 122.571406 
L 311.68125 163.988594 
Q 311.68125 165.988594 313.68125 165.988594 
z
" style="fill:#ffffff;opacity:0.8;stroke:#cccccc;stroke-linejoin:miter;"/>
    </g>
    <g id="line2d_18">
     <path d="M 315.68125 128.071406 
L 335.68125 128.071406 
" style="fill:none;stroke:#008000;stroke-linecap:square;stroke-width:2;"/>
    </g>
    <g id="line2d_19">
     <g>
      <use style="fill:#008000;stroke:#008000;stroke-linejoin:bevel;" x="325.68125" xlink:href="#mffa2622201" y="128.071406"/>
     </g>
    </g>
    <g id="text_17">
     <!-- MKPP -->
     <defs>
      <path d="M 29.890625 36.71875 
L 54.296875 12.453125 
Q 60.296875 6.453125 64.546875 4.265625 
Q 68.796875 2.09375 73.046875 1.8125 
L 73.046875 0 
L 41.546875 0 
L 41.546875 1.8125 
Q 44.390625 1.8125 45.625 2.765625 
Q 46.875 3.71875 46.875 4.890625 
Q 46.875 6.0625 46.40625 6.984375 
Q 45.953125 7.90625 43.359375 10.453125 
L 20.515625 33.0625 
L 20.515625 11.71875 
Q 20.515625 6.6875 21.140625 5.078125 
Q 21.625 3.859375 23.1875 2.984375 
Q 25.296875 1.8125 27.640625 1.8125 
L 29.890625 1.8125 
L 29.890625 0 
L 1.65625 0 
L 1.65625 1.8125 
L 4 1.8125 
Q 8.109375 1.8125 9.96875 4.203125 
Q 11.140625 5.765625 11.140625 11.71875 
L 11.140625 54.5 
Q 11.140625 59.515625 10.5 61.1875 
Q 10.015625 62.359375 8.5 63.234375 
Q 6.34375 64.40625 4 64.40625 
L 1.65625 64.40625 
L 1.65625 66.21875 
L 29.890625 66.21875 
L 29.890625 64.40625 
L 27.640625 64.40625 
Q 25.34375 64.40625 23.1875 63.28125 
Q 21.6875 62.5 21.09375 60.9375 
Q 20.515625 59.375 20.515625 54.5 
L 20.515625 34.234375 
Q 21.484375 35.15625 27.203125 40.4375 
Q 41.703125 53.71875 44.734375 58.15625 
Q 46.046875 60.109375 46.046875 61.578125 
Q 46.046875 62.703125 45.015625 63.546875 
Q 44 64.40625 41.546875 64.40625 
L 40.046875 64.40625 
L 40.046875 66.21875 
L 64.359375 66.21875 
L 64.359375 64.40625 
Q 62.203125 64.359375 60.4375 63.8125 
Q 58.6875 63.28125 56.140625 61.734375 
Q 53.609375 60.203125 49.90625 56.78125 
Q 48.828125 55.8125 39.984375 46.78125 
z
" id="TimesNewRomanPSMT-4b"/>
      <path d="M 20.515625 31 
L 20.515625 11.71875 
Q 20.515625 5.46875 21.875 3.953125 
Q 23.734375 1.8125 27.484375 1.8125 
L 30.03125 1.8125 
L 30.03125 0 
L 1.65625 0 
L 1.65625 1.8125 
L 4.15625 1.8125 
Q 8.34375 1.8125 10.15625 4.546875 
Q 11.140625 6.0625 11.140625 11.71875 
L 11.140625 54.5 
Q 11.140625 60.75 9.8125 62.25 
Q 7.90625 64.40625 4.15625 64.40625 
L 1.65625 64.40625 
L 1.65625 66.21875 
L 25.921875 66.21875 
Q 34.8125 66.21875 39.9375 64.375 
Q 45.0625 62.546875 48.578125 58.203125 
Q 52.09375 53.859375 52.09375 47.90625 
Q 52.09375 39.796875 46.75 34.71875 
Q 41.40625 29.640625 31.640625 29.640625 
Q 29.25 29.640625 26.46875 29.984375 
Q 23.6875 30.328125 20.515625 31 
z
M 20.515625 33.796875 
Q 23.09375 33.296875 25.09375 33.046875 
Q 27.09375 32.8125 28.515625 32.8125 
Q 33.59375 32.8125 37.28125 36.734375 
Q 40.96875 40.671875 40.96875 46.921875 
Q 40.96875 51.21875 39.203125 54.90625 
Q 37.453125 58.59375 34.21875 60.421875 
Q 31 62.25 26.90625 62.25 
Q 24.421875 62.25 20.515625 61.328125 
z
" id="TimesNewRomanPSMT-50"/>
     </defs>
     <g transform="translate(343.68125 131.571406)scale(0.1 -0.1)">
      <use xlink:href="#TimesNewRomanPSMT-4d"/>
      <use x="88.916016" xlink:href="#TimesNewRomanPSMT-4b"/>
      <use x="161.132812" xlink:href="#TimesNewRomanPSMT-50"/>
      <use x="216.748047" xlink:href="#TimesNewRomanPSMT-50"/>
     </g>
    </g>
    <g id="line2d_20">
     <path d="M 315.68125 142.210469 
L 335.68125 142.210469 
" style="fill:none;stroke:#ffa500;stroke-linecap:square;stroke-width:2;"/>
    </g>
    <g id="line2d_21">
     <g>
      <use style="fill:#ffa500;stroke:#ffa500;" x="325.68125" xlink:href="#mc04d1644a9" y="142.210469"/>
     </g>
    </g>
    <g id="text_18">
     <!-- MKKPP -->
     <g transform="translate(343.68125 145.710469)scale(0.1 -0.1)">
      <use xlink:href="#TimesNewRomanPSMT-4d"/>
      <use x="88.916016" xlink:href="#TimesNewRomanPSMT-4b"/>
      <use x="161.132812" xlink:href="#TimesNewRomanPSMT-4b"/>
      <use x="233.349609" xlink:href="#TimesNewRomanPSMT-50"/>
      <use x="288.964844" xlink:href="#TimesNewRomanPSMT-50"/>
     </g>
    </g>
    <g id="line2d_22">
     <path d="M 315.68125 156.349531 
L 335.68125 156.349531 
" style="fill:none;stroke:#0000ff;stroke-linecap:square;stroke-width:2;"/>
    </g>
    <g id="line2d_23">
     <g>
      <use style="fill:#0000ff;stroke:#0000ff;stroke-linejoin:miter;" x="325.68125" xlink:href="#m5a56f1a3ed" y="156.349531"/>
     </g>
    </g>
    <g id="text_19">
     <!-- MKKKP -->
     <g transform="translate(343.68125 159.849531)scale(0.1 -0.1)">
      <use xlink:href="#TimesNewRomanPSMT-4d"/>
      <use x="88.916016" xlink:href="#TimesNewRomanPSMT-4b"/>
      <use x="161.132812" xlink:href="#TimesNewRomanPSMT-4b"/>
      <use x="233.349609" xlink:href="#TimesNewRomanPSMT-4b"/>
      <use x="305.566406" xlink:href="#TimesNewRomanPSMT-50"/>
     </g>
    </g>
   </g>
  </g>
 </g>
 <defs>
  <clipPath id="p27b62dd651">
   <rect height="217.44" width="334.8" x="54" y="34.56"/>
  </clipPath>
 </defs>
</svg>
