<?xml version="1.0" encoding="utf-8" standalone="no"?>
<!DOCTYPE svg PUBLIC "-//W3C//DTD SVG 1.1//EN"
  "http://www.w3.org/Graphics/SVG/1.1/DTD/svg11.dtd">
<!-- Created with matplotlib (http://matplotlib.org/) -->
<svg height="288pt" version="1.1" viewBox="0 0 432 288" width="432pt" xmlns="http://www.w3.org/2000/svg" xmlns:xlink="http://www.w3.org/1999/xlink">
 <defs>
  <style type="text/css">
*{stroke-linecap:butt;stroke-linejoin:round;}
  </style>
 </defs>
 <g id="figure_1">
  <g id="patch_1">
   <path d="M 0 288 
L 432 288 
L 432 0 
L 0 0 
z
" style="fill:#ffffff;"/>
  </g>
  <g id="axes_1">
   <g id="patch_2">
    <path d="M 43.2 259.2 
L 388.8 259.2 
L 388.8 28.8 
L 43.2 28.8 
z
" style="fill:#ffffff;"/>
   </g>
   <g id="matplotlib.axis_1">
    <g id="xtick_1">
     <g id="line2d_1">
      <path clip-path="url(#p2d7cfcbf65)" d="M 58.909091 259.2 
L 58.909091 28.8 
" style="fill:none;stroke:#b0b0b0;stroke-linecap:square;stroke-width:0.8;"/>
     </g>
     <g id="line2d_2">
      <defs>
       <path d="M 0 0 
L 0 3.5 
" id="m07b18081af" style="stroke:#000000;stroke-width:0.8;"/>
      </defs>
      <g>
       <use style="stroke:#000000;stroke-width:0.8;" x="58.909091" xlink:href="#m07b18081af" y="259.2"/>
      </g>
     </g>
     <g id="text_1">
      <!-- 0 -->
      <defs>
       <path d="M 3.609375 32.71875 
Q 3.609375 44.046875 7.03125 52.21875 
Q 10.453125 60.40625 16.109375 64.40625 
Q 20.515625 67.578125 25.203125 67.578125 
Q 32.8125 67.578125 38.875 59.8125 
Q 46.4375 50.203125 46.4375 33.734375 
Q 46.4375 22.21875 43.109375 14.15625 
Q 39.796875 6.109375 34.640625 2.46875 
Q 29.5 -1.171875 24.703125 -1.171875 
Q 15.234375 -1.171875 8.9375 10.015625 
Q 3.609375 19.4375 3.609375 32.71875 
z
M 13.1875 31.5 
Q 13.1875 17.828125 16.546875 9.1875 
Q 19.34375 1.90625 24.859375 1.90625 
Q 27.484375 1.90625 30.3125 4.265625 
Q 33.15625 6.640625 34.625 12.203125 
Q 36.859375 20.609375 36.859375 35.890625 
Q 36.859375 47.21875 34.515625 54.78125 
Q 32.765625 60.40625 29.984375 62.75 
Q 27.984375 64.359375 25.140625 64.359375 
Q 21.828125 64.359375 19.234375 61.375 
Q 15.71875 57.328125 14.453125 48.625 
Q 13.1875 39.9375 13.1875 31.5 
z
" id="TimesNewRomanPSMT-30"/>
      </defs>
      <g transform="translate(56.409091 273.14375)scale(0.1 -0.1)">
       <use xlink:href="#TimesNewRomanPSMT-30"/>
      </g>
     </g>
    </g>
    <g id="xtick_2">
     <g id="line2d_3">
      <path clip-path="url(#p2d7cfcbf65)" d="M 121.745455 259.2 
L 121.745455 28.8 
" style="fill:none;stroke:#b0b0b0;stroke-linecap:square;stroke-width:0.8;"/>
     </g>
     <g id="line2d_4">
      <g>
       <use style="stroke:#000000;stroke-width:0.8;" x="121.745455" xlink:href="#m07b18081af" y="259.2"/>
      </g>
     </g>
     <g id="text_2">
      <!-- 20 -->
      <defs>
       <path d="M 45.84375 12.75 
L 41.21875 0 
L 2.15625 0 
L 2.15625 1.8125 
Q 19.390625 17.53125 26.421875 27.484375 
Q 33.453125 37.453125 33.453125 45.703125 
Q 33.453125 52 29.59375 56.046875 
Q 25.734375 60.109375 20.359375 60.109375 
Q 15.484375 60.109375 11.59375 57.25 
Q 7.71875 54.390625 5.859375 48.875 
L 4.046875 48.875 
Q 5.28125 57.90625 10.328125 62.734375 
Q 15.375 67.578125 22.953125 67.578125 
Q 31 67.578125 36.390625 62.40625 
Q 41.796875 57.234375 41.796875 50.203125 
Q 41.796875 45.171875 39.453125 40.140625 
Q 35.84375 32.234375 27.734375 23.390625 
Q 15.578125 10.109375 12.546875 7.375 
L 29.828125 7.375 
Q 35.109375 7.375 37.234375 7.765625 
Q 39.359375 8.15625 41.0625 9.34375 
Q 42.78125 10.546875 44.046875 12.75 
z
" id="TimesNewRomanPSMT-32"/>
      </defs>
      <g transform="translate(116.745455 273.14375)scale(0.1 -0.1)">
       <use xlink:href="#TimesNewRomanPSMT-32"/>
       <use x="50" xlink:href="#TimesNewRomanPSMT-30"/>
      </g>
     </g>
    </g>
    <g id="xtick_3">
     <g id="line2d_5">
      <path clip-path="url(#p2d7cfcbf65)" d="M 184.581818 259.2 
L 184.581818 28.8 
" style="fill:none;stroke:#b0b0b0;stroke-linecap:square;stroke-width:0.8;"/>
     </g>
     <g id="line2d_6">
      <g>
       <use style="stroke:#000000;stroke-width:0.8;" x="184.581818" xlink:href="#m07b18081af" y="259.2"/>
      </g>
     </g>
     <g id="text_3">
      <!-- 40 -->
      <defs>
       <path d="M 46.53125 24.421875 
L 46.53125 17.484375 
L 37.640625 17.484375 
L 37.640625 0 
L 29.59375 0 
L 29.59375 17.484375 
L 1.5625 17.484375 
L 1.5625 23.734375 
L 32.28125 67.578125 
L 37.640625 67.578125 
L 37.640625 24.421875 
z
M 29.59375 24.421875 
L 29.59375 57.28125 
L 6.34375 24.421875 
z
" id="TimesNewRomanPSMT-34"/>
      </defs>
      <g transform="translate(179.581818 273.14375)scale(0.1 -0.1)">
       <use xlink:href="#TimesNewRomanPSMT-34"/>
       <use x="50" xlink:href="#TimesNewRomanPSMT-30"/>
      </g>
     </g>
    </g>
    <g id="xtick_4">
     <g id="line2d_7">
      <path clip-path="url(#p2d7cfcbf65)" d="M 247.418182 259.2 
L 247.418182 28.8 
" style="fill:none;stroke:#b0b0b0;stroke-linecap:square;stroke-width:0.8;"/>
     </g>
     <g id="line2d_8">
      <g>
       <use style="stroke:#000000;stroke-width:0.8;" x="247.418182" xlink:href="#m07b18081af" y="259.2"/>
      </g>
     </g>
     <g id="text_4">
      <!-- 60 -->
      <defs>
       <path d="M 44.828125 67.578125 
L 44.828125 65.765625 
Q 38.375 65.140625 34.296875 63.203125 
Q 30.21875 61.28125 26.234375 57.328125 
Q 22.265625 53.375 19.65625 48.515625 
Q 17.046875 43.65625 15.28125 36.96875 
Q 22.3125 41.796875 29.390625 41.796875 
Q 36.1875 41.796875 41.15625 36.328125 
Q 46.140625 30.859375 46.140625 22.265625 
Q 46.140625 13.96875 41.109375 7.125 
Q 35.0625 -1.171875 25.09375 -1.171875 
Q 18.3125 -1.171875 13.578125 3.328125 
Q 4.296875 12.0625 4.296875 25.984375 
Q 4.296875 34.859375 7.859375 42.859375 
Q 11.421875 50.875 18.03125 57.078125 
Q 24.65625 63.28125 30.703125 65.421875 
Q 36.765625 67.578125 42 67.578125 
z
M 14.453125 33.40625 
Q 13.578125 26.8125 13.578125 22.75 
Q 13.578125 18.0625 15.3125 12.5625 
Q 17.046875 7.078125 20.453125 3.859375 
Q 22.953125 1.5625 26.515625 1.5625 
Q 30.765625 1.5625 34.109375 5.5625 
Q 37.453125 9.578125 37.453125 17 
Q 37.453125 25.34375 34.125 31.4375 
Q 30.8125 37.546875 24.703125 37.546875 
Q 22.859375 37.546875 20.734375 36.765625 
Q 18.609375 35.984375 14.453125 33.40625 
z
" id="TimesNewRomanPSMT-36"/>
      </defs>
      <g transform="translate(242.418182 273.14375)scale(0.1 -0.1)">
       <use xlink:href="#TimesNewRomanPSMT-36"/>
       <use x="50" xlink:href="#TimesNewRomanPSMT-30"/>
      </g>
     </g>
    </g>
    <g id="xtick_5">
     <g id="line2d_9">
      <path clip-path="url(#p2d7cfcbf65)" d="M 310.254545 259.2 
L 310.254545 28.8 
" style="fill:none;stroke:#b0b0b0;stroke-linecap:square;stroke-width:0.8;"/>
     </g>
     <g id="line2d_10">
      <g>
       <use style="stroke:#000000;stroke-width:0.8;" x="310.254545" xlink:href="#m07b18081af" y="259.2"/>
      </g>
     </g>
     <g id="text_5">
      <!-- 80 -->
      <defs>
       <path d="M 19.1875 33.34375 
Q 11.328125 39.796875 9.046875 43.703125 
Q 6.78125 47.609375 6.78125 51.8125 
Q 6.78125 58.25 11.765625 62.90625 
Q 16.75 67.578125 25 67.578125 
Q 33.015625 67.578125 37.890625 63.234375 
Q 42.78125 58.890625 42.78125 53.328125 
Q 42.78125 49.609375 40.140625 45.75 
Q 37.5 41.890625 29.15625 36.671875 
Q 37.75 30.03125 40.53125 26.21875 
Q 44.234375 21.234375 44.234375 15.71875 
Q 44.234375 8.734375 38.90625 3.78125 
Q 33.59375 -1.171875 24.953125 -1.171875 
Q 15.53125 -1.171875 10.25 4.734375 
Q 6.0625 9.46875 6.0625 15.09375 
Q 6.0625 19.484375 9.015625 23.796875 
Q 11.96875 28.125 19.1875 33.34375 
z
M 26.859375 38.578125 
Q 32.71875 43.84375 34.28125 46.890625 
Q 35.84375 49.953125 35.84375 53.8125 
Q 35.84375 58.9375 32.953125 61.84375 
Q 30.078125 64.75 25.09375 64.75 
Q 20.125 64.75 17 61.859375 
Q 13.875 58.984375 13.875 55.125 
Q 13.875 52.59375 15.15625 50.046875 
Q 16.453125 47.515625 18.84375 45.21875 
z
M 21.484375 31.5 
Q 17.4375 28.078125 15.484375 24.046875 
Q 13.53125 20.015625 13.53125 15.328125 
Q 13.53125 9.03125 16.96875 5.25 
Q 20.40625 1.46875 25.734375 1.46875 
Q 31 1.46875 34.171875 4.4375 
Q 37.359375 7.421875 37.359375 11.671875 
Q 37.359375 15.1875 35.5 17.96875 
Q 32.03125 23.140625 21.484375 31.5 
z
" id="TimesNewRomanPSMT-38"/>
      </defs>
      <g transform="translate(305.254545 273.14375)scale(0.1 -0.1)">
       <use xlink:href="#TimesNewRomanPSMT-38"/>
       <use x="50" xlink:href="#TimesNewRomanPSMT-30"/>
      </g>
     </g>
    </g>
    <g id="xtick_6">
     <g id="line2d_11">
      <path clip-path="url(#p2d7cfcbf65)" d="M 373.090909 259.2 
L 373.090909 28.8 
" style="fill:none;stroke:#b0b0b0;stroke-linecap:square;stroke-width:0.8;"/>
     </g>
     <g id="line2d_12">
      <g>
       <use style="stroke:#000000;stroke-width:0.8;" x="373.090909" xlink:href="#m07b18081af" y="259.2"/>
      </g>
     </g>
     <g id="text_6">
      <!-- 100 -->
      <defs>
       <path d="M 11.71875 59.71875 
L 27.828125 67.578125 
L 29.4375 67.578125 
L 29.4375 11.671875 
Q 29.4375 6.109375 29.90625 4.734375 
Q 30.375 3.375 31.828125 2.640625 
Q 33.296875 1.90625 37.796875 1.8125 
L 37.796875 0 
L 12.890625 0 
L 12.890625 1.8125 
Q 17.578125 1.90625 18.9375 2.609375 
Q 20.3125 3.328125 20.84375 4.515625 
Q 21.390625 5.71875 21.390625 11.671875 
L 21.390625 47.40625 
Q 21.390625 54.640625 20.90625 56.6875 
Q 20.5625 58.25 19.65625 58.984375 
Q 18.75 59.71875 17.484375 59.71875 
Q 15.671875 59.71875 12.453125 58.203125 
z
" id="TimesNewRomanPSMT-31"/>
      </defs>
      <g transform="translate(365.590909 273.14375)scale(0.1 -0.1)">
       <use xlink:href="#TimesNewRomanPSMT-31"/>
       <use x="50" xlink:href="#TimesNewRomanPSMT-30"/>
       <use x="100" xlink:href="#TimesNewRomanPSMT-30"/>
      </g>
     </g>
    </g>
    <g id="text_7">
     <!-- Time (s) -->
     <defs>
      <path d="M 57.859375 66.21875 
L 58.59375 50.6875 
L 56.734375 50.6875 
Q 56.203125 54.78125 55.28125 56.546875 
Q 53.765625 59.375 51.25 60.71875 
Q 48.734375 62.0625 44.625 62.0625 
L 35.296875 62.0625 
L 35.296875 11.46875 
Q 35.296875 5.375 36.625 3.859375 
Q 38.484375 1.8125 42.328125 1.8125 
L 44.625 1.8125 
L 44.625 0 
L 16.546875 0 
L 16.546875 1.8125 
L 18.890625 1.8125 
Q 23.09375 1.8125 24.859375 4.34375 
Q 25.921875 5.90625 25.921875 11.46875 
L 25.921875 62.0625 
L 17.96875 62.0625 
Q 13.328125 62.0625 11.375 61.375 
Q 8.84375 60.453125 7.03125 57.8125 
Q 5.21875 55.171875 4.890625 50.6875 
L 3.03125 50.6875 
L 3.8125 66.21875 
z
" id="TimesNewRomanPSMT-54"/>
      <path d="M 14.5 69.4375 
Q 16.546875 69.4375 17.984375 67.984375 
Q 19.4375 66.546875 19.4375 64.5 
Q 19.4375 62.453125 17.984375 60.984375 
Q 16.546875 59.515625 14.5 59.515625 
Q 12.453125 59.515625 10.984375 60.984375 
Q 9.515625 62.453125 9.515625 64.5 
Q 9.515625 66.546875 10.953125 67.984375 
Q 12.40625 69.4375 14.5 69.4375 
z
M 18.5625 46.046875 
L 18.5625 10.109375 
Q 18.5625 5.90625 19.171875 4.515625 
Q 19.78125 3.125 20.96875 2.4375 
Q 22.171875 1.765625 25.34375 1.765625 
L 25.34375 0 
L 3.609375 0 
L 3.609375 1.765625 
Q 6.890625 1.765625 8 2.390625 
Q 9.125 3.03125 9.78125 4.484375 
Q 10.453125 5.953125 10.453125 10.109375 
L 10.453125 27.34375 
Q 10.453125 34.625 10.015625 36.765625 
Q 9.671875 38.328125 8.9375 38.9375 
Q 8.203125 39.546875 6.9375 39.546875 
Q 5.5625 39.546875 3.609375 38.8125 
L 2.9375 40.578125 
L 16.40625 46.046875 
z
" id="TimesNewRomanPSMT-69"/>
      <path d="M 16.40625 36.53125 
Q 21.296875 41.40625 22.171875 42.140625 
Q 24.359375 44 26.890625 45.015625 
Q 29.4375 46.046875 31.9375 46.046875 
Q 36.140625 46.046875 39.15625 43.59375 
Q 42.1875 41.15625 43.21875 36.53125 
Q 48.25 42.390625 51.703125 44.21875 
Q 55.171875 46.046875 58.84375 46.046875 
Q 62.40625 46.046875 65.15625 44.21875 
Q 67.921875 42.390625 69.53125 38.234375 
Q 70.609375 35.40625 70.609375 29.34375 
L 70.609375 10.109375 
Q 70.609375 5.90625 71.234375 4.34375 
Q 71.734375 3.265625 73.046875 2.515625 
Q 74.359375 1.765625 77.34375 1.765625 
L 77.34375 0 
L 55.28125 0 
L 55.28125 1.765625 
L 56.203125 1.765625 
Q 59.078125 1.765625 60.6875 2.875 
Q 61.8125 3.65625 62.3125 5.375 
Q 62.5 6.203125 62.5 10.109375 
L 62.5 29.34375 
Q 62.5 34.8125 61.1875 37.0625 
Q 59.28125 40.1875 55.078125 40.1875 
Q 52.484375 40.1875 49.875 38.890625 
Q 47.265625 37.59375 43.5625 34.078125 
L 43.453125 33.546875 
L 43.5625 31.453125 
L 43.5625 10.109375 
Q 43.5625 5.515625 44.0625 4.390625 
Q 44.578125 3.265625 45.984375 2.515625 
Q 47.40625 1.765625 50.828125 1.765625 
L 50.828125 0 
L 28.21875 0 
L 28.21875 1.765625 
Q 31.9375 1.765625 33.328125 2.640625 
Q 34.71875 3.515625 35.25 5.28125 
Q 35.5 6.109375 35.5 10.109375 
L 35.5 29.34375 
Q 35.5 34.8125 33.890625 37.203125 
Q 31.734375 40.328125 27.875 40.328125 
Q 25.25 40.328125 22.65625 38.921875 
Q 18.609375 36.765625 16.40625 34.078125 
L 16.40625 10.109375 
Q 16.40625 5.71875 17.015625 4.390625 
Q 17.625 3.078125 18.8125 2.421875 
Q 20.015625 1.765625 23.6875 1.765625 
L 23.6875 0 
L 1.5625 0 
L 1.5625 1.765625 
Q 4.640625 1.765625 5.859375 2.421875 
Q 7.078125 3.078125 7.703125 4.515625 
Q 8.34375 5.953125 8.34375 10.109375 
L 8.34375 27.203125 
Q 8.34375 34.578125 7.90625 36.71875 
Q 7.5625 38.328125 6.828125 38.9375 
Q 6.109375 39.546875 4.828125 39.546875 
Q 3.46875 39.546875 1.5625 38.8125 
L 0.828125 40.578125 
L 14.3125 46.046875 
L 16.40625 46.046875 
z
" id="TimesNewRomanPSMT-6d"/>
      <path d="M 10.640625 27.875 
Q 10.59375 17.921875 15.484375 12.25 
Q 20.359375 6.59375 26.953125 6.59375 
Q 31.34375 6.59375 34.59375 9 
Q 37.84375 11.421875 40.046875 17.28125 
L 41.546875 16.3125 
Q 40.53125 9.625 35.59375 4.125 
Q 30.671875 -1.375 23.25 -1.375 
Q 15.1875 -1.375 9.453125 4.90625 
Q 3.71875 11.1875 3.71875 21.78125 
Q 3.71875 33.25 9.59375 39.671875 
Q 15.484375 46.09375 24.359375 46.09375 
Q 31.890625 46.09375 36.71875 41.140625 
Q 41.546875 36.1875 41.546875 27.875 
z
M 10.640625 30.71875 
L 31.34375 30.71875 
Q 31.109375 35.015625 30.328125 36.765625 
Q 29.109375 39.5 26.6875 41.0625 
Q 24.265625 42.625 21.625 42.625 
Q 17.578125 42.625 14.375 39.46875 
Q 11.1875 36.328125 10.640625 30.71875 
z
" id="TimesNewRomanPSMT-65"/>
      <path id="TimesNewRomanPSMT-20"/>
      <path d="M 31.0625 -19.578125 
L 31.0625 -21.390625 
Q 23.6875 -17.671875 18.75 -12.703125 
Q 11.71875 -5.609375 7.90625 4 
Q 4.109375 13.625 4.109375 23.96875 
Q 4.109375 39.109375 11.578125 51.578125 
Q 19.046875 64.0625 31.0625 69.4375 
L 31.0625 67.390625 
Q 25.046875 64.0625 21.1875 58.296875 
Q 17.328125 52.546875 15.421875 43.703125 
Q 13.53125 34.859375 13.53125 25.25 
Q 13.53125 14.796875 15.140625 6.25 
Q 16.40625 -0.484375 18.203125 -4.5625 
Q 20.015625 -8.640625 23.0625 -12.390625 
Q 26.125 -16.15625 31.0625 -19.578125 
z
" id="TimesNewRomanPSMT-28"/>
      <path d="M 32.03125 46.046875 
L 32.03125 30.8125 
L 30.421875 30.8125 
Q 28.5625 37.984375 25.65625 40.578125 
Q 22.75 43.171875 18.265625 43.171875 
Q 14.84375 43.171875 12.734375 41.359375 
Q 10.640625 39.546875 10.640625 37.359375 
Q 10.640625 34.625 12.203125 32.671875 
Q 13.71875 30.671875 18.359375 28.421875 
L 25.484375 24.953125 
Q 35.40625 20.125 35.40625 12.203125 
Q 35.40625 6.109375 30.78125 2.359375 
Q 26.171875 -1.375 20.453125 -1.375 
Q 16.359375 -1.375 11.078125 0.09375 
Q 9.46875 0.59375 8.453125 0.59375 
Q 7.328125 0.59375 6.6875 -0.6875 
L 5.078125 -0.6875 
L 5.078125 15.28125 
L 6.6875 15.28125 
Q 8.0625 8.453125 11.90625 4.984375 
Q 15.765625 1.515625 20.5625 1.515625 
Q 23.921875 1.515625 26.046875 3.484375 
Q 28.171875 5.46875 28.171875 8.25 
Q 28.171875 11.625 25.796875 13.921875 
Q 23.4375 16.21875 16.359375 19.734375 
Q 9.28125 23.25 7.078125 26.078125 
Q 4.890625 28.859375 4.890625 33.109375 
Q 4.890625 38.625 8.671875 42.328125 
Q 12.453125 46.046875 18.453125 46.046875 
Q 21.09375 46.046875 24.859375 44.921875 
Q 27.34375 44.1875 28.171875 44.1875 
Q 28.953125 44.1875 29.390625 44.53125 
Q 29.828125 44.875 30.421875 46.046875 
z
" id="TimesNewRomanPSMT-73"/>
      <path d="M 2.25 67.390625 
L 2.25 69.4375 
Q 9.671875 65.765625 14.59375 60.796875 
Q 21.578125 53.65625 25.390625 44.0625 
Q 29.203125 34.46875 29.203125 24.078125 
Q 29.203125 8.9375 21.75 -3.53125 
Q 14.3125 -16.015625 2.25 -21.390625 
L 2.25 -19.578125 
Q 8.25 -16.21875 12.125 -10.46875 
Q 16.015625 -4.734375 17.890625 4.125 
Q 19.78125 12.984375 19.78125 22.609375 
Q 19.78125 33.015625 18.171875 41.609375 
Q 16.9375 48.34375 15.109375 52.390625 
Q 13.28125 56.453125 10.25 60.203125 
Q 7.234375 63.96875 2.25 67.390625 
z
" id="TimesNewRomanPSMT-29"/>
     </defs>
     <g transform="translate(195.51 287.615313)scale(0.12 -0.12)">
      <use xlink:href="#TimesNewRomanPSMT-54"/>
      <use x="61.037109" xlink:href="#TimesNewRomanPSMT-69"/>
      <use x="88.820312" xlink:href="#TimesNewRomanPSMT-6d"/>
      <use x="166.603516" xlink:href="#TimesNewRomanPSMT-65"/>
      <use x="210.988281" xlink:href="#TimesNewRomanPSMT-20"/>
      <use x="235.988281" xlink:href="#TimesNewRomanPSMT-28"/>
      <use x="269.289062" xlink:href="#TimesNewRomanPSMT-73"/>
      <use x="308.205078" xlink:href="#TimesNewRomanPSMT-29"/>
     </g>
    </g>
   </g>
   <g id="matplotlib.axis_2">
    <g id="ytick_1">
     <g id="line2d_13">
      <path clip-path="url(#p2d7cfcbf65)" d="M 43.2 248.727273 
L 388.8 248.727273 
" style="fill:none;stroke:#b0b0b0;stroke-linecap:square;stroke-width:0.8;"/>
     </g>
     <g id="line2d_14">
      <defs>
       <path d="M 0 0 
L -3.5 0 
" id="mcc7856920a" style="stroke:#000000;stroke-width:0.8;"/>
      </defs>
      <g>
       <use style="stroke:#000000;stroke-width:0.8;" x="43.2" xlink:href="#mcc7856920a" y="248.727273"/>
      </g>
     </g>
     <g id="text_8">
      <!-- 0.0 -->
      <defs>
       <path d="M 12.5 9.46875 
Q 14.796875 9.46875 16.359375 7.875 
Q 17.921875 6.296875 17.921875 4.046875 
Q 17.921875 1.8125 16.328125 0.21875 
Q 14.75 -1.375 12.5 -1.375 
Q 10.25 -1.375 8.65625 0.21875 
Q 7.078125 1.8125 7.078125 4.046875 
Q 7.078125 6.34375 8.65625 7.90625 
Q 10.25 9.46875 12.5 9.46875 
z
" id="TimesNewRomanPSMT-2e"/>
      </defs>
      <g transform="translate(23.7 252.199148)scale(0.1 -0.1)">
       <use xlink:href="#TimesNewRomanPSMT-30"/>
       <use x="50" xlink:href="#TimesNewRomanPSMT-2e"/>
       <use x="75" xlink:href="#TimesNewRomanPSMT-30"/>
      </g>
     </g>
    </g>
    <g id="ytick_2">
     <g id="line2d_15">
      <path clip-path="url(#p2d7cfcbf65)" d="M 43.2 206.044061 
L 388.8 206.044061 
" style="fill:none;stroke:#b0b0b0;stroke-linecap:square;stroke-width:0.8;"/>
     </g>
     <g id="line2d_16">
      <g>
       <use style="stroke:#000000;stroke-width:0.8;" x="43.2" xlink:href="#mcc7856920a" y="206.044061"/>
      </g>
     </g>
     <g id="text_9">
      <!-- 0.2 -->
      <g transform="translate(23.7 209.515936)scale(0.1 -0.1)">
       <use xlink:href="#TimesNewRomanPSMT-30"/>
       <use x="50" xlink:href="#TimesNewRomanPSMT-2e"/>
       <use x="75" xlink:href="#TimesNewRomanPSMT-32"/>
      </g>
     </g>
    </g>
    <g id="ytick_3">
     <g id="line2d_17">
      <path clip-path="url(#p2d7cfcbf65)" d="M 43.2 163.360849 
L 388.8 163.360849 
" style="fill:none;stroke:#b0b0b0;stroke-linecap:square;stroke-width:0.8;"/>
     </g>
     <g id="line2d_18">
      <g>
       <use style="stroke:#000000;stroke-width:0.8;" x="43.2" xlink:href="#mcc7856920a" y="163.360849"/>
      </g>
     </g>
     <g id="text_10">
      <!-- 0.4 -->
      <g transform="translate(23.7 166.832724)scale(0.1 -0.1)">
       <use xlink:href="#TimesNewRomanPSMT-30"/>
       <use x="50" xlink:href="#TimesNewRomanPSMT-2e"/>
       <use x="75" xlink:href="#TimesNewRomanPSMT-34"/>
      </g>
     </g>
    </g>
    <g id="ytick_4">
     <g id="line2d_19">
      <path clip-path="url(#p2d7cfcbf65)" d="M 43.2 120.677636 
L 388.8 120.677636 
" style="fill:none;stroke:#b0b0b0;stroke-linecap:square;stroke-width:0.8;"/>
     </g>
     <g id="line2d_20">
      <g>
       <use style="stroke:#000000;stroke-width:0.8;" x="43.2" xlink:href="#mcc7856920a" y="120.677636"/>
      </g>
     </g>
     <g id="text_11">
      <!-- 0.6 -->
      <g transform="translate(23.7 124.149511)scale(0.1 -0.1)">
       <use xlink:href="#TimesNewRomanPSMT-30"/>
       <use x="50" xlink:href="#TimesNewRomanPSMT-2e"/>
       <use x="75" xlink:href="#TimesNewRomanPSMT-36"/>
      </g>
     </g>
    </g>
    <g id="ytick_5">
     <g id="line2d_21">
      <path clip-path="url(#p2d7cfcbf65)" d="M 43.2 77.994424 
L 388.8 77.994424 
" style="fill:none;stroke:#b0b0b0;stroke-linecap:square;stroke-width:0.8;"/>
     </g>
     <g id="line2d_22">
      <g>
       <use style="stroke:#000000;stroke-width:0.8;" x="43.2" xlink:href="#mcc7856920a" y="77.994424"/>
      </g>
     </g>
     <g id="text_12">
      <!-- 0.8 -->
      <g transform="translate(23.7 81.466299)scale(0.1 -0.1)">
       <use xlink:href="#TimesNewRomanPSMT-30"/>
       <use x="50" xlink:href="#TimesNewRomanPSMT-2e"/>
       <use x="75" xlink:href="#TimesNewRomanPSMT-38"/>
      </g>
     </g>
    </g>
    <g id="ytick_6">
     <g id="line2d_23">
      <path clip-path="url(#p2d7cfcbf65)" d="M 43.2 35.311212 
L 388.8 35.311212 
" style="fill:none;stroke:#b0b0b0;stroke-linecap:square;stroke-width:0.8;"/>
     </g>
     <g id="line2d_24">
      <g>
       <use style="stroke:#000000;stroke-width:0.8;" x="43.2" xlink:href="#mcc7856920a" y="35.311212"/>
      </g>
     </g>
     <g id="text_13">
      <!-- 1.0 -->
      <g transform="translate(23.7 38.783087)scale(0.1 -0.1)">
       <use xlink:href="#TimesNewRomanPSMT-31"/>
       <use x="50" xlink:href="#TimesNewRomanPSMT-2e"/>
       <use x="75" xlink:href="#TimesNewRomanPSMT-30"/>
      </g>
     </g>
    </g>
    <g id="text_14">
     <!-- Concentration ($\mu$molar) -->
     <defs>
      <path d="M 60.203125 67.71875 
L 61.71875 45.21875 
L 60.203125 45.21875 
Q 57.171875 55.328125 51.5625 59.765625 
Q 45.953125 64.203125 38.09375 64.203125 
Q 31.5 64.203125 26.171875 60.859375 
Q 20.84375 57.515625 17.796875 50.1875 
Q 14.75 42.875 14.75 31.984375 
Q 14.75 23 17.625 16.40625 
Q 20.515625 9.8125 26.296875 6.296875 
Q 32.078125 2.78125 39.5 2.78125 
Q 45.953125 2.78125 50.875 5.53125 
Q 55.8125 8.296875 61.71875 16.5 
L 63.234375 15.53125 
Q 58.25 6.6875 51.609375 2.578125 
Q 44.96875 -1.515625 35.84375 -1.515625 
Q 19.390625 -1.515625 10.359375 10.6875 
Q 3.609375 19.78125 3.609375 32.078125 
Q 3.609375 42 8.046875 50.296875 
Q 12.5 58.59375 20.28125 63.15625 
Q 28.078125 67.71875 37.3125 67.71875 
Q 44.484375 67.71875 51.46875 64.203125 
Q 53.515625 63.140625 54.390625 63.140625 
Q 55.71875 63.140625 56.6875 64.0625 
Q 57.953125 65.375 58.5 67.71875 
z
" id="TimesNewRomanPSMT-43"/>
      <path d="M 25 46.046875 
Q 35.15625 46.046875 41.3125 38.328125 
Q 46.53125 31.734375 46.53125 23.1875 
Q 46.53125 17.1875 43.640625 11.03125 
Q 40.765625 4.890625 35.71875 1.75 
Q 30.671875 -1.375 24.46875 -1.375 
Q 14.359375 -1.375 8.40625 6.6875 
Q 3.375 13.484375 3.375 21.921875 
Q 3.375 28.078125 6.421875 34.15625 
Q 9.46875 40.234375 14.453125 43.140625 
Q 19.4375 46.046875 25 46.046875 
z
M 23.484375 42.875 
Q 20.90625 42.875 18.28125 41.328125 
Q 15.671875 39.796875 14.0625 35.9375 
Q 12.453125 32.078125 12.453125 26.03125 
Q 12.453125 16.265625 16.328125 9.171875 
Q 20.21875 2.09375 26.5625 2.09375 
Q 31.296875 2.09375 34.375 6 
Q 37.453125 9.90625 37.453125 19.4375 
Q 37.453125 31.34375 32.328125 38.1875 
Q 28.859375 42.875 23.484375 42.875 
z
" id="TimesNewRomanPSMT-6f"/>
      <path d="M 16.15625 36.578125 
Q 24.03125 46.046875 31.15625 46.046875 
Q 34.8125 46.046875 37.453125 44.21875 
Q 40.09375 42.390625 41.65625 38.1875 
Q 42.71875 35.25 42.71875 29.203125 
L 42.71875 10.109375 
Q 42.71875 5.859375 43.40625 4.34375 
Q 43.953125 3.125 45.140625 2.4375 
Q 46.34375 1.765625 49.5625 1.765625 
L 49.5625 0 
L 27.4375 0 
L 27.4375 1.765625 
L 28.375 1.765625 
Q 31.5 1.765625 32.734375 2.703125 
Q 33.984375 3.65625 34.46875 5.515625 
Q 34.671875 6.25 34.671875 10.109375 
L 34.671875 28.421875 
Q 34.671875 34.515625 33.078125 37.28125 
Q 31.5 40.046875 27.734375 40.046875 
Q 21.921875 40.046875 16.15625 33.6875 
L 16.15625 10.109375 
Q 16.15625 5.5625 16.703125 4.5 
Q 17.390625 3.078125 18.578125 2.421875 
Q 19.78125 1.765625 23.4375 1.765625 
L 23.4375 0 
L 1.3125 0 
L 1.3125 1.765625 
L 2.296875 1.765625 
Q 5.71875 1.765625 6.90625 3.484375 
Q 8.109375 5.21875 8.109375 10.109375 
L 8.109375 26.703125 
Q 8.109375 34.765625 7.734375 36.515625 
Q 7.375 38.28125 6.609375 38.90625 
Q 5.859375 39.546875 4.59375 39.546875 
Q 3.21875 39.546875 1.3125 38.8125 
L 0.59375 40.578125 
L 14.0625 46.046875 
L 16.15625 46.046875 
z
" id="TimesNewRomanPSMT-6e"/>
      <path d="M 41.109375 17 
Q 39.3125 8.15625 34.03125 3.390625 
Q 28.765625 -1.375 22.359375 -1.375 
Q 14.75 -1.375 9.078125 5.015625 
Q 3.421875 11.421875 3.421875 22.3125 
Q 3.421875 32.859375 9.6875 39.453125 
Q 15.96875 46.046875 24.75 46.046875 
Q 31.34375 46.046875 35.59375 42.546875 
Q 39.84375 39.0625 39.84375 35.296875 
Q 39.84375 33.453125 38.640625 32.296875 
Q 37.453125 31.15625 35.296875 31.15625 
Q 32.421875 31.15625 30.953125 33.015625 
Q 30.125 34.03125 29.859375 36.90625 
Q 29.59375 39.796875 27.875 41.3125 
Q 26.171875 42.78125 23.140625 42.78125 
Q 18.265625 42.78125 15.28125 39.15625 
Q 11.328125 34.375 11.328125 26.515625 
Q 11.328125 18.5 15.25 12.375 
Q 19.1875 6.25 25.875 6.25 
Q 30.671875 6.25 34.46875 9.515625 
Q 37.15625 11.765625 39.703125 17.671875 
z
" id="TimesNewRomanPSMT-63"/>
      <path d="M 16.109375 59.421875 
L 16.109375 44.734375 
L 26.5625 44.734375 
L 26.5625 41.3125 
L 16.109375 41.3125 
L 16.109375 12.3125 
Q 16.109375 7.953125 17.359375 6.4375 
Q 18.609375 4.9375 20.5625 4.9375 
Q 22.171875 4.9375 23.6875 5.9375 
Q 25.203125 6.9375 26.03125 8.890625 
L 27.9375 8.890625 
Q 26.21875 4.109375 23.09375 1.6875 
Q 19.96875 -0.734375 16.65625 -0.734375 
Q 14.40625 -0.734375 12.25 0.515625 
Q 10.109375 1.765625 9.078125 4.078125 
Q 8.0625 6.390625 8.0625 11.234375 
L 8.0625 41.3125 
L 0.984375 41.3125 
L 0.984375 42.921875 
Q 3.65625 44 6.46875 46.5625 
Q 9.28125 49.125 11.46875 52.640625 
Q 12.59375 54.5 14.59375 59.421875 
z
" id="TimesNewRomanPSMT-74"/>
      <path d="M 16.21875 46.046875 
L 16.21875 35.984375 
Q 21.828125 46.046875 27.734375 46.046875 
Q 30.421875 46.046875 32.171875 44.40625 
Q 33.9375 42.78125 33.9375 40.625 
Q 33.9375 38.71875 32.65625 37.390625 
Q 31.390625 36.078125 29.640625 36.078125 
Q 27.9375 36.078125 25.8125 37.765625 
Q 23.6875 39.453125 22.65625 39.453125 
Q 21.78125 39.453125 20.75 38.484375 
Q 18.5625 36.46875 16.21875 31.890625 
L 16.21875 10.453125 
Q 16.21875 6.734375 17.140625 4.828125 
Q 17.78125 3.515625 19.390625 2.640625 
Q 21 1.765625 24.03125 1.765625 
L 24.03125 0 
L 1.125 0 
L 1.125 1.765625 
Q 4.546875 1.765625 6.203125 2.828125 
Q 7.421875 3.609375 7.90625 5.328125 
Q 8.15625 6.15625 8.15625 10.0625 
L 8.15625 27.390625 
Q 8.15625 35.203125 7.828125 36.6875 
Q 7.515625 38.1875 6.65625 38.859375 
Q 5.8125 39.546875 4.546875 39.546875 
Q 3.03125 39.546875 1.125 38.8125 
L 0.640625 40.578125 
L 14.15625 46.046875 
z
" id="TimesNewRomanPSMT-72"/>
      <path d="M 28.46875 6.453125 
Q 21.578125 1.125 19.828125 0.296875 
Q 17.1875 -0.921875 14.203125 -0.921875 
Q 9.578125 -0.921875 6.5625 2.25 
Q 3.5625 5.421875 3.5625 10.59375 
Q 3.5625 13.875 5.03125 16.265625 
Q 7.03125 19.578125 11.984375 22.5 
Q 16.9375 25.4375 28.46875 29.640625 
L 28.46875 31.390625 
Q 28.46875 38.09375 26.34375 40.578125 
Q 24.21875 43.0625 20.171875 43.0625 
Q 17.09375 43.0625 15.28125 41.40625 
Q 13.421875 39.75 13.421875 37.59375 
L 13.53125 34.765625 
Q 13.53125 32.515625 12.375 31.296875 
Q 11.234375 30.078125 9.375 30.078125 
Q 7.5625 30.078125 6.421875 31.34375 
Q 5.28125 32.625 5.28125 34.8125 
Q 5.28125 39.015625 9.578125 42.53125 
Q 13.875 46.046875 21.625 46.046875 
Q 27.59375 46.046875 31.390625 44.046875 
Q 34.28125 42.53125 35.640625 39.3125 
Q 36.53125 37.203125 36.53125 30.71875 
L 36.53125 15.53125 
Q 36.53125 9.125 36.765625 7.6875 
Q 37.015625 6.25 37.578125 5.765625 
Q 38.140625 5.28125 38.875 5.28125 
Q 39.65625 5.28125 40.234375 5.609375 
Q 41.265625 6.25 44.1875 9.1875 
L 44.1875 6.453125 
Q 38.71875 -0.875 33.734375 -0.875 
Q 31.34375 -0.875 29.921875 0.78125 
Q 28.515625 2.4375 28.46875 6.453125 
z
M 28.46875 9.625 
L 28.46875 26.65625 
Q 21.09375 23.734375 18.953125 22.515625 
Q 15.09375 20.359375 13.421875 18.015625 
Q 11.765625 15.671875 11.765625 12.890625 
Q 11.765625 9.375 13.859375 7.046875 
Q 15.96875 4.734375 18.703125 4.734375 
Q 22.40625 4.734375 28.46875 9.625 
z
" id="TimesNewRomanPSMT-61"/>
      <path d="M -1.3125 -20.796875 
L 13.375 54.6875 
L 22.40625 54.6875 
L 15.765625 20.65625 
Q 15.578125 19.625 15.421875 18.359375 
Q 15.28125 17.09375 15.28125 15.828125 
Q 15.28125 11.28125 18.140625 8.828125 
Q 21 6.390625 26.3125 6.390625 
Q 33.546875 6.390625 37.984375 10.484375 
Q 42.4375 14.59375 44 22.796875 
L 50.203125 54.6875 
L 59.1875 54.6875 
L 51.03125 12.640625 
Q 50.828125 11.71875 50.75 11.03125 
Q 50.6875 10.359375 50.6875 9.8125 
Q 50.6875 8.296875 51.296875 7.59375 
Q 51.90625 6.890625 53.21875 6.890625 
Q 53.71875 6.890625 54.5625 7.125 
Q 55.421875 7.375 56.984375 8.015625 
L 55.609375 0.78125 
Q 53.46875 -0.296875 51.515625 -0.859375 
Q 49.5625 -1.421875 47.703125 -1.421875 
Q 44.484375 -1.421875 42.65625 0.625 
Q 40.828125 2.6875 40.828125 6.296875 
Q 38.09375 2.390625 34.296875 0.484375 
Q 30.515625 -1.421875 25.390625 -1.421875 
Q 20.84375 -1.421875 17.453125 0.671875 
Q 14.0625 2.78125 12.984375 6.203125 
L 7.71875 -20.796875 
z
" id="DejaVuSans-Oblique-3bc"/>
      <path d="M 18.5 69.4375 
L 18.5 10.109375 
Q 18.5 5.90625 19.109375 4.53125 
Q 19.734375 3.171875 21 2.46875 
Q 22.265625 1.765625 25.734375 1.765625 
L 25.734375 0 
L 3.8125 0 
L 3.8125 1.765625 
Q 6.890625 1.765625 8 2.390625 
Q 9.125 3.03125 9.765625 4.484375 
Q 10.40625 5.953125 10.40625 10.109375 
L 10.40625 50.734375 
Q 10.40625 58.296875 10.0625 60.03125 
Q 9.71875 61.765625 8.953125 62.390625 
Q 8.203125 63.03125 7.03125 63.03125 
Q 5.765625 63.03125 3.8125 62.25 
L 2.984375 63.96875 
L 16.3125 69.4375 
z
" id="TimesNewRomanPSMT-6c"/>
     </defs>
     <g transform="translate(17.06 201.3)rotate(-90)scale(0.12 -0.12)">
      <use transform="translate(0 0.5625)" xlink:href="#TimesNewRomanPSMT-43"/>
      <use transform="translate(66.699219 0.5625)" xlink:href="#TimesNewRomanPSMT-6f"/>
      <use transform="translate(116.699219 0.5625)" xlink:href="#TimesNewRomanPSMT-6e"/>
      <use transform="translate(166.699219 0.5625)" xlink:href="#TimesNewRomanPSMT-63"/>
      <use transform="translate(211.083984 0.5625)" xlink:href="#TimesNewRomanPSMT-65"/>
      <use transform="translate(255.46875 0.5625)" xlink:href="#TimesNewRomanPSMT-6e"/>
      <use transform="translate(305.46875 0.5625)" xlink:href="#TimesNewRomanPSMT-74"/>
      <use transform="translate(333.251953 0.5625)" xlink:href="#TimesNewRomanPSMT-72"/>
      <use transform="translate(366.552734 0.5625)" xlink:href="#TimesNewRomanPSMT-61"/>
      <use transform="translate(410.9375 0.5625)" xlink:href="#TimesNewRomanPSMT-74"/>
      <use transform="translate(438.720703 0.5625)" xlink:href="#TimesNewRomanPSMT-69"/>
      <use transform="translate(466.503906 0.5625)" xlink:href="#TimesNewRomanPSMT-6f"/>
      <use transform="translate(516.503906 0.5625)" xlink:href="#TimesNewRomanPSMT-6e"/>
      <use transform="translate(566.503906 0.5625)" xlink:href="#TimesNewRomanPSMT-20"/>
      <use transform="translate(591.503906 0.5625)" xlink:href="#TimesNewRomanPSMT-28"/>
      <use transform="translate(624.804688 0.5625)" xlink:href="#DejaVuSans-Oblique-3bc"/>
      <use transform="translate(688.427734 0.5625)" xlink:href="#TimesNewRomanPSMT-6d"/>
      <use transform="translate(766.210938 0.5625)" xlink:href="#TimesNewRomanPSMT-6f"/>
      <use transform="translate(816.210938 0.5625)" xlink:href="#TimesNewRomanPSMT-6c"/>
      <use transform="translate(843.994141 0.5625)" xlink:href="#TimesNewRomanPSMT-61"/>
      <use transform="translate(888.378906 0.5625)" xlink:href="#TimesNewRomanPSMT-72"/>
      <use transform="translate(921.679688 0.5625)" xlink:href="#TimesNewRomanPSMT-29"/>
     </g>
    </g>
   </g>
   <g id="line2d_25">
    <path clip-path="url(#p2d7cfcbf65)" d="M 58.909091 248.727273 
L 334.760727 248.672702 
L 373.090909 248.673828 
L 373.090909 248.673828 
" style="fill:none;stroke:#0000ff;stroke-dasharray:7.4,3.2;stroke-dashoffset:0;stroke-width:2;"/>
    <defs>
     <path d="M 0 -2.5 
L -2.5 2.5 
L 2.5 2.5 
z
" id="m23181b67fd" style="stroke:#0000ff;stroke-linejoin:miter;"/>
    </defs>
    <g clip-path="url(#p2d7cfcbf65)">
     <use style="fill:#0000ff;stroke:#0000ff;stroke-linejoin:miter;" x="58.909091" xlink:href="#m23181b67fd" y="248.727273"/>
     <use style="fill:#0000ff;stroke:#0000ff;stroke-linejoin:miter;" x="77.76" xlink:href="#m23181b67fd" y="248.717245"/>
     <use style="fill:#0000ff;stroke:#0000ff;stroke-linejoin:miter;" x="96.610909" xlink:href="#m23181b67fd" y="248.709312"/>
     <use style="fill:#0000ff;stroke:#0000ff;stroke-linejoin:miter;" x="115.461818" xlink:href="#m23181b67fd" y="248.702406"/>
     <use style="fill:#0000ff;stroke:#0000ff;stroke-linejoin:miter;" x="134.312727" xlink:href="#m23181b67fd" y="248.695772"/>
     <use style="fill:#0000ff;stroke:#0000ff;stroke-linejoin:miter;" x="153.163636" xlink:href="#m23181b67fd" y="248.689108"/>
     <use style="fill:#0000ff;stroke:#0000ff;stroke-linejoin:miter;" x="172.014545" xlink:href="#m23181b67fd" y="248.68212"/>
     <use style="fill:#0000ff;stroke:#0000ff;stroke-linejoin:miter;" x="190.865455" xlink:href="#m23181b67fd" y="248.675057"/>
     <use style="fill:#0000ff;stroke:#0000ff;stroke-linejoin:miter;" x="209.716364" xlink:href="#m23181b67fd" y="248.668929"/>
     <use style="fill:#0000ff;stroke:#0000ff;stroke-linejoin:miter;" x="228.567273" xlink:href="#m23181b67fd" y="248.665179"/>
     <use style="fill:#0000ff;stroke:#0000ff;stroke-linejoin:miter;" x="247.418182" xlink:href="#m23181b67fd" y="248.664485"/>
     <use style="fill:#0000ff;stroke:#0000ff;stroke-linejoin:miter;" x="266.269091" xlink:href="#m23181b67fd" y="248.666024"/>
     <use style="fill:#0000ff;stroke:#0000ff;stroke-linejoin:miter;" x="285.12" xlink:href="#m23181b67fd" y="248.668345"/>
     <use style="fill:#0000ff;stroke:#0000ff;stroke-linejoin:miter;" x="303.970909" xlink:href="#m23181b67fd" y="248.670456"/>
     <use style="fill:#0000ff;stroke:#0000ff;stroke-linejoin:miter;" x="322.821818" xlink:href="#m23181b67fd" y="248.67201"/>
     <use style="fill:#0000ff;stroke:#0000ff;stroke-linejoin:miter;" x="341.672727" xlink:href="#m23181b67fd" y="248.673014"/>
     <use style="fill:#0000ff;stroke:#0000ff;stroke-linejoin:miter;" x="360.523636" xlink:href="#m23181b67fd" y="248.6736"/>
    </g>
   </g>
   <g id="line2d_26">
    <path clip-path="url(#p2d7cfcbf65)" d="M 58.909091 248.727273 
L 78.074182 248.616433 
L 86.557091 248.328016 
L 93.469091 247.877468 
L 99.752727 247.246684 
L 105.408 246.452077 
L 110.120727 245.57133 
L 113.890909 244.647787 
L 116.718545 243.734055 
L 118.917818 242.796499 
L 120.802909 241.747231 
L 122.373818 240.644041 
L 124.258909 239.020118 
L 126.458182 236.779371 
L 129.6 233.193865 
L 133.684364 228.164377 
L 138.397091 221.993845 
L 143.424 215.034715 
L 148.765091 207.25361 
L 154.734545 198.142679 
L 161.646545 187.154272 
L 170.757818 172.212389 
L 186.466909 146.416467 
L 193.064727 136.041043 
L 198.72 127.555143 
L 203.746909 120.409022 
L 208.459636 114.101967 
L 212.858182 108.592873 
L 216.942545 103.82514 
L 221.026909 99.405919 
L 224.797091 95.642515 
L 228.567273 92.183929 
L 232.337455 89.027756 
L 236.107636 86.167948 
L 239.877818 83.595134 
L 243.648 81.297334 
L 247.418182 79.260419 
L 251.188364 77.468786 
L 255.272727 75.785069 
L 259.357091 74.347165 
L 263.755636 73.047928 
L 268.154182 71.980268 
L 272.866909 71.063067 
L 277.893818 70.309121 
L 283.549091 69.695686 
L 289.832727 69.253806 
L 296.744727 68.998049 
L 304.913455 68.928145 
L 314.967273 69.077651 
L 329.105455 69.532297 
L 373.090909 71.169614 
L 373.090909 71.169614 
" style="fill:none;stroke:#ffa500;stroke-dasharray:7.4,3.2;stroke-dashoffset:0;stroke-width:2;"/>
    <defs>
     <path d="M 0 2.5 
C 0.663008 2.5 1.29895 2.236584 1.767767 1.767767 
C 2.236584 1.29895 2.5 0.663008 2.5 0 
C 2.5 -0.663008 2.236584 -1.29895 1.767767 -1.767767 
C 1.29895 -2.236584 0.663008 -2.5 0 -2.5 
C -0.663008 -2.5 -1.29895 -2.236584 -1.767767 -1.767767 
C -2.236584 -1.29895 -2.5 -0.663008 -2.5 0 
C -2.5 0.663008 -2.236584 1.29895 -1.767767 1.767767 
C -1.29895 2.236584 -0.663008 2.5 0 2.5 
z
" id="m708503f078" style="stroke:#ffa500;"/>
    </defs>
    <g clip-path="url(#p2d7cfcbf65)">
     <use style="fill:#ffa500;stroke:#ffa500;" x="58.909091" xlink:href="#m708503f078" y="248.727273"/>
     <use style="fill:#ffa500;stroke:#ffa500;" x="74.618182" xlink:href="#m708503f078" y="248.673092"/>
     <use style="fill:#ffa500;stroke:#ffa500;" x="90.327273" xlink:href="#m708503f078" y="248.110452"/>
     <use style="fill:#ffa500;stroke:#ffa500;" x="106.036364" xlink:href="#m708503f078" y="246.347784"/>
     <use style="fill:#ffa500;stroke:#ffa500;" x="121.745455" xlink:href="#m708503f078" y="241.112554"/>
     <use style="fill:#ffa500;stroke:#ffa500;" x="137.454545" xlink:href="#m708503f078" y="223.256453"/>
     <use style="fill:#ffa500;stroke:#ffa500;" x="153.163636" xlink:href="#m708503f078" y="200.578591"/>
     <use style="fill:#ffa500;stroke:#ffa500;" x="168.872727" xlink:href="#m708503f078" y="175.328937"/>
     <use style="fill:#ffa500;stroke:#ffa500;" x="184.581818" xlink:href="#m708503f078" y="149.453245"/>
     <use style="fill:#ffa500;stroke:#ffa500;" x="200.290909" xlink:href="#m708503f078" y="125.278696"/>
     <use style="fill:#ffa500;stroke:#ffa500;" x="216" xlink:href="#m708503f078" y="104.894838"/>
     <use style="fill:#ffa500;stroke:#ffa500;" x="231.709091" xlink:href="#m708503f078" y="89.532995"/>
     <use style="fill:#ffa500;stroke:#ffa500;" x="247.418182" xlink:href="#m708503f078" y="79.260419"/>
     <use style="fill:#ffa500;stroke:#ffa500;" x="263.127273" xlink:href="#m708503f078" y="73.21872"/>
     <use style="fill:#ffa500;stroke:#ffa500;" x="278.836364" xlink:href="#m708503f078" y="70.190763"/>
     <use style="fill:#ffa500;stroke:#ffa500;" x="294.545455" xlink:href="#m708503f078" y="69.056902"/>
     <use style="fill:#ffa500;stroke:#ffa500;" x="310.254545" xlink:href="#m708503f078" y="68.982138"/>
     <use style="fill:#ffa500;stroke:#ffa500;" x="325.963636" xlink:href="#m708503f078" y="69.416464"/>
     <use style="fill:#ffa500;stroke:#ffa500;" x="341.672727" xlink:href="#m708503f078" y="70.029643"/>
     <use style="fill:#ffa500;stroke:#ffa500;" x="357.381818" xlink:href="#m708503f078" y="70.642018"/>
     <use style="fill:#ffa500;stroke:#ffa500;" x="373.090909" xlink:href="#m708503f078" y="71.169614"/>
    </g>
   </g>
   <g id="line2d_27">
    <path clip-path="url(#p2d7cfcbf65)" d="M 58.909091 248.727273 
L 88.442182 248.619341 
L 93.783273 248.36357 
L 97.239273 247.986524 
L 99.752727 247.515079 
L 101.952 246.884419 
L 103.837091 246.104678 
L 105.408 245.218112 
L 106.978909 244.038111 
L 108.235636 242.815839 
L 109.492364 241.272837 
L 110.749091 239.32065 
L 112.005818 236.845923 
L 113.262545 233.705041 
L 114.205091 230.806337 
L 115.147636 227.345545 
L 116.090182 223.225342 
L 117.346909 216.533455 
L 118.603636 208.276872 
L 119.860364 198.344728 
L 121.431273 183.741832 
L 126.772364 131.189812 
L 128.343273 119.450694 
L 129.6 111.551051 
L 131.170909 103.230814 
L 132.741818 96.303253 
L 134.312727 90.473202 
L 135.883636 85.514017 
L 137.454545 81.251805 
L 139.025455 77.554784 
L 140.910545 73.723665 
L 142.795636 70.427163 
L 144.680727 67.56484 
L 146.88 64.671593 
L 149.079273 62.170725 
L 151.278545 59.990923 
L 153.792 57.822912 
L 156.305455 55.939255 
L 159.133091 54.099432 
L 162.274909 52.339487 
L 165.730909 50.684681 
L 169.501091 49.150988 
L 173.585455 47.746791 
L 177.984 46.474895 
L 183.010909 45.264849 
L 188.666182 44.14931 
L 194.949818 43.148731 
L 201.861818 42.27382 
L 210.030545 41.47387 
L 219.456 40.788554 
L 230.452364 40.225444 
L 243.333818 39.79516 
L 259.357091 39.489152 
L 281.035636 39.312289 
L 315.909818 39.279481 
L 373.090909 39.360464 
L 373.090909 39.360464 
" style="fill:none;stroke:#008000;stroke-dasharray:7.4,3.2;stroke-dashoffset:0;stroke-width:2;"/>
    <defs>
     <path d="M 0 -3.5 
L -0.785799 -1.081559 
L -3.328698 -1.081559 
L -1.271449 0.413119 
L -2.057248 2.831559 
L -0 1.336881 
L 2.057248 2.831559 
L 1.271449 0.413119 
L 3.328698 -1.081559 
L 0.785799 -1.081559 
z
" id="m22b5f94b9c" style="stroke:#008000;stroke-linejoin:bevel;"/>
    </defs>
    <g clip-path="url(#p2d7cfcbf65)">
     <use style="fill:#008000;stroke:#008000;stroke-linejoin:bevel;" x="58.909091" xlink:href="#m22b5f94b9c" y="248.727273"/>
     <use style="fill:#008000;stroke:#008000;stroke-linejoin:bevel;" x="74.618182" xlink:href="#m22b5f94b9c" y="248.726103"/>
     <use style="fill:#008000;stroke:#008000;stroke-linejoin:bevel;" x="90.327273" xlink:href="#m22b5f94b9c" y="248.558258"/>
     <use style="fill:#008000;stroke:#008000;stroke-linejoin:bevel;" x="106.036364" xlink:href="#m22b5f94b9c" y="244.786293"/>
     <use style="fill:#008000;stroke:#008000;stroke-linejoin:bevel;" x="121.745455" xlink:href="#m22b5f94b9c" y="180.589864"/>
     <use style="fill:#008000;stroke:#008000;stroke-linejoin:bevel;" x="137.454545" xlink:href="#m22b5f94b9c" y="81.251805"/>
     <use style="fill:#008000;stroke:#008000;stroke-linejoin:bevel;" x="153.163636" xlink:href="#m22b5f94b9c" y="58.33606"/>
     <use style="fill:#008000;stroke:#008000;stroke-linejoin:bevel;" x="168.872727" xlink:href="#m22b5f94b9c" y="49.389364"/>
     <use style="fill:#008000;stroke:#008000;stroke-linejoin:bevel;" x="184.581818" xlink:href="#m22b5f94b9c" y="44.931424"/>
     <use style="fill:#008000;stroke:#008000;stroke-linejoin:bevel;" x="200.290909" xlink:href="#m22b5f94b9c" y="42.454826"/>
     <use style="fill:#008000;stroke:#008000;stroke-linejoin:bevel;" x="216" xlink:href="#m22b5f94b9c" y="41.014674"/>
     <use style="fill:#008000;stroke:#008000;stroke-linejoin:bevel;" x="231.709091" xlink:href="#m22b5f94b9c" y="40.173941"/>
     <use style="fill:#008000;stroke:#008000;stroke-linejoin:bevel;" x="247.418182" xlink:href="#m22b5f94b9c" y="39.697206"/>
     <use style="fill:#008000;stroke:#008000;stroke-linejoin:bevel;" x="263.127273" xlink:href="#m22b5f94b9c" y="39.443025"/>
     <use style="fill:#008000;stroke:#008000;stroke-linejoin:bevel;" x="278.836364" xlink:href="#m22b5f94b9c" y="39.322104"/>
     <use style="fill:#008000;stroke:#008000;stroke-linejoin:bevel;" x="294.545455" xlink:href="#m22b5f94b9c" y="39.277846"/>
     <use style="fill:#008000;stroke:#008000;stroke-linejoin:bevel;" x="310.254545" xlink:href="#m22b5f94b9c" y="39.274892"/>
     <use style="fill:#008000;stroke:#008000;stroke-linejoin:bevel;" x="325.963636" xlink:href="#m22b5f94b9c" y="39.291696"/>
     <use style="fill:#008000;stroke:#008000;stroke-linejoin:bevel;" x="341.672727" xlink:href="#m22b5f94b9c" y="39.31558"/>
     <use style="fill:#008000;stroke:#008000;stroke-linejoin:bevel;" x="357.381818" xlink:href="#m22b5f94b9c" y="39.339617"/>
     <use style="fill:#008000;stroke:#008000;stroke-linejoin:bevel;" x="373.090909" xlink:href="#m22b5f94b9c" y="39.360464"/>
    </g>
   </g>
   <g id="patch_3">
    <path d="M 43.2 259.2 
L 43.2 28.8 
" style="fill:none;stroke:#000000;stroke-linecap:square;stroke-linejoin:miter;stroke-width:0.8;"/>
   </g>
   <g id="patch_4">
    <path d="M 388.8 259.2 
L 388.8 28.8 
" style="fill:none;stroke:#000000;stroke-linecap:square;stroke-linejoin:miter;stroke-width:0.8;"/>
   </g>
   <g id="patch_5">
    <path d="M 43.2 259.2 
L 388.8 259.2 
" style="fill:none;stroke:#000000;stroke-linecap:square;stroke-linejoin:miter;stroke-width:0.8;"/>
   </g>
   <g id="patch_6">
    <path d="M 43.2 28.8 
L 388.8 28.8 
" style="fill:none;stroke:#000000;stroke-linecap:square;stroke-linejoin:miter;stroke-width:0.8;"/>
   </g>
   <g id="legend_1">
    <g id="patch_7">
     <path d="M 51.625125 85.695469 
L 112.932 85.695469 
Q 114.732 85.695469 114.732 83.895469 
L 114.732 46.62 
Q 114.732 44.82 112.932 44.82 
L 51.625125 44.82 
Q 49.825125 44.82 49.825125 46.62 
L 49.825125 83.895469 
Q 49.825125 85.695469 51.625125 85.695469 
z
" style="fill:#ffffff;opacity:0.8;stroke:#cccccc;stroke-linejoin:miter;"/>
    </g>
    <g id="line2d_28">
     <path d="M 53.425125 51.57 
L 71.425125 51.57 
" style="fill:none;stroke:#0000ff;stroke-dasharray:7.4,3.2;stroke-dashoffset:0;stroke-width:2;"/>
    </g>
    <g id="line2d_29">
     <g>
      <use style="fill:#0000ff;stroke:#0000ff;stroke-linejoin:miter;" x="62.425125" xlink:href="#m23181b67fd" y="51.57"/>
     </g>
    </g>
    <g id="text_15">
     <!-- MKKKP -->
     <defs>
      <path d="M 40.921875 0 
L 15.328125 55.71875 
L 15.328125 11.46875 
Q 15.328125 5.375 16.65625 3.859375 
Q 18.453125 1.8125 22.359375 1.8125 
L 24.703125 1.8125 
L 24.703125 0 
L 1.65625 0 
L 1.65625 1.8125 
L 4 1.8125 
Q 8.203125 1.8125 9.96875 4.34375 
Q 11.03125 5.90625 11.03125 11.46875 
L 11.03125 54.734375 
Q 11.03125 59.125 10.0625 61.078125 
Q 9.375 62.5 7.546875 63.453125 
Q 5.71875 64.40625 1.65625 64.40625 
L 1.65625 66.21875 
L 20.40625 66.21875 
L 44.4375 14.40625 
L 68.0625 66.21875 
L 86.8125 66.21875 
L 86.8125 64.40625 
L 84.515625 64.40625 
Q 80.28125 64.40625 78.515625 61.859375 
Q 77.4375 60.296875 77.4375 54.734375 
L 77.4375 11.46875 
Q 77.4375 5.375 78.8125 3.859375 
Q 80.609375 1.8125 84.515625 1.8125 
L 86.8125 1.8125 
L 86.8125 0 
L 58.6875 0 
L 58.6875 1.8125 
L 61.03125 1.8125 
Q 65.28125 1.8125 67 4.34375 
Q 68.0625 5.90625 68.0625 11.46875 
L 68.0625 55.71875 
L 42.53125 0 
z
" id="TimesNewRomanPSMT-4d"/>
      <path d="M 29.890625 36.71875 
L 54.296875 12.453125 
Q 60.296875 6.453125 64.546875 4.265625 
Q 68.796875 2.09375 73.046875 1.8125 
L 73.046875 0 
L 41.546875 0 
L 41.546875 1.8125 
Q 44.390625 1.8125 45.625 2.765625 
Q 46.875 3.71875 46.875 4.890625 
Q 46.875 6.0625 46.40625 6.984375 
Q 45.953125 7.90625 43.359375 10.453125 
L 20.515625 33.0625 
L 20.515625 11.71875 
Q 20.515625 6.6875 21.140625 5.078125 
Q 21.625 3.859375 23.1875 2.984375 
Q 25.296875 1.8125 27.640625 1.8125 
L 29.890625 1.8125 
L 29.890625 0 
L 1.65625 0 
L 1.65625 1.8125 
L 4 1.8125 
Q 8.109375 1.8125 9.96875 4.203125 
Q 11.140625 5.765625 11.140625 11.71875 
L 11.140625 54.5 
Q 11.140625 59.515625 10.5 61.1875 
Q 10.015625 62.359375 8.5 63.234375 
Q 6.34375 64.40625 4 64.40625 
L 1.65625 64.40625 
L 1.65625 66.21875 
L 29.890625 66.21875 
L 29.890625 64.40625 
L 27.640625 64.40625 
Q 25.34375 64.40625 23.1875 63.28125 
Q 21.6875 62.5 21.09375 60.9375 
Q 20.515625 59.375 20.515625 54.5 
L 20.515625 34.234375 
Q 21.484375 35.15625 27.203125 40.4375 
Q 41.703125 53.71875 44.734375 58.15625 
Q 46.046875 60.109375 46.046875 61.578125 
Q 46.046875 62.703125 45.015625 63.546875 
Q 44 64.40625 41.546875 64.40625 
L 40.046875 64.40625 
L 40.046875 66.21875 
L 64.359375 66.21875 
L 64.359375 64.40625 
Q 62.203125 64.359375 60.4375 63.8125 
Q 58.6875 63.28125 56.140625 61.734375 
Q 53.609375 60.203125 49.90625 56.78125 
Q 48.828125 55.8125 39.984375 46.78125 
z
" id="TimesNewRomanPSMT-4b"/>
      <path d="M 20.515625 31 
L 20.515625 11.71875 
Q 20.515625 5.46875 21.875 3.953125 
Q 23.734375 1.8125 27.484375 1.8125 
L 30.03125 1.8125 
L 30.03125 0 
L 1.65625 0 
L 1.65625 1.8125 
L 4.15625 1.8125 
Q 8.34375 1.8125 10.15625 4.546875 
Q 11.140625 6.0625 11.140625 11.71875 
L 11.140625 54.5 
Q 11.140625 60.75 9.8125 62.25 
Q 7.90625 64.40625 4.15625 64.40625 
L 1.65625 64.40625 
L 1.65625 66.21875 
L 25.921875 66.21875 
Q 34.8125 66.21875 39.9375 64.375 
Q 45.0625 62.546875 48.578125 58.203125 
Q 52.09375 53.859375 52.09375 47.90625 
Q 52.09375 39.796875 46.75 34.71875 
Q 41.40625 29.640625 31.640625 29.640625 
Q 29.25 29.640625 26.46875 29.984375 
Q 23.6875 30.328125 20.515625 31 
z
M 20.515625 33.796875 
Q 23.09375 33.296875 25.09375 33.046875 
Q 27.09375 32.8125 28.515625 32.8125 
Q 33.59375 32.8125 37.28125 36.734375 
Q 40.96875 40.671875 40.96875 46.921875 
Q 40.96875 51.21875 39.203125 54.90625 
Q 37.453125 58.59375 34.21875 60.421875 
Q 31 62.25 26.90625 62.25 
Q 24.421875 62.25 20.515625 61.328125 
z
" id="TimesNewRomanPSMT-50"/>
     </defs>
     <g transform="translate(78.625125 54.72)scale(0.09 -0.09)">
      <use xlink:href="#TimesNewRomanPSMT-4d"/>
      <use x="88.916016" xlink:href="#TimesNewRomanPSMT-4b"/>
      <use x="161.132812" xlink:href="#TimesNewRomanPSMT-4b"/>
      <use x="233.349609" xlink:href="#TimesNewRomanPSMT-4b"/>
      <use x="305.566406" xlink:href="#TimesNewRomanPSMT-50"/>
     </g>
    </g>
    <g id="line2d_30">
     <path d="M 53.425125 64.295156 
L 71.425125 64.295156 
" style="fill:none;stroke:#ffa500;stroke-dasharray:7.4,3.2;stroke-dashoffset:0;stroke-width:2;"/>
    </g>
    <g id="line2d_31">
     <g>
      <use style="fill:#ffa500;stroke:#ffa500;" x="62.425125" xlink:href="#m708503f078" y="64.295156"/>
     </g>
    </g>
    <g id="text_16">
     <!-- MKKPP -->
     <g transform="translate(78.625125 67.445156)scale(0.09 -0.09)">
      <use xlink:href="#TimesNewRomanPSMT-4d"/>
      <use x="88.916016" xlink:href="#TimesNewRomanPSMT-4b"/>
      <use x="161.132812" xlink:href="#TimesNewRomanPSMT-4b"/>
      <use x="233.349609" xlink:href="#TimesNewRomanPSMT-50"/>
      <use x="288.964844" xlink:href="#TimesNewRomanPSMT-50"/>
     </g>
    </g>
    <g id="line2d_32">
     <path d="M 53.425125 77.020313 
L 71.425125 77.020313 
" style="fill:none;stroke:#008000;stroke-dasharray:7.4,3.2;stroke-dashoffset:0;stroke-width:2;"/>
    </g>
    <g id="line2d_33">
     <g>
      <use style="fill:#008000;stroke:#008000;stroke-linejoin:bevel;" x="62.425125" xlink:href="#m22b5f94b9c" y="77.020313"/>
     </g>
    </g>
    <g id="text_17">
     <!-- MKPP -->
     <g transform="translate(78.625125 80.170313)scale(0.09 -0.09)">
      <use xlink:href="#TimesNewRomanPSMT-4d"/>
      <use x="88.916016" xlink:href="#TimesNewRomanPSMT-4b"/>
      <use x="161.132812" xlink:href="#TimesNewRomanPSMT-50"/>
      <use x="216.748047" xlink:href="#TimesNewRomanPSMT-50"/>
     </g>
    </g>
   </g>
  </g>
  <g id="axes_2">
   <g id="patch_8">
    <path d="M 272.16 167.04 
L 384.48 167.04 
L 384.48 120.96 
L 272.16 120.96 
z
" style="fill:#ffffff;"/>
   </g>
   <g id="matplotlib.axis_3">
    <g id="xtick_7">
     <g id="line2d_34">
      <g>
       <use style="stroke:#000000;stroke-width:0.8;" x="277.265455" xlink:href="#m07b18081af" y="167.04"/>
      </g>
     </g>
     <g id="text_18">
      <!-- 0 -->
      <g transform="translate(274.765455 180.98375)scale(0.1 -0.1)">
       <use xlink:href="#TimesNewRomanPSMT-30"/>
      </g>
     </g>
    </g>
    <g id="xtick_8">
     <g id="line2d_35">
      <g>
       <use style="stroke:#000000;stroke-width:0.8;" x="328.32" xlink:href="#m07b18081af" y="167.04"/>
      </g>
     </g>
     <g id="text_19">
      <!-- 50 -->
      <defs>
       <path d="M 43.40625 66.21875 
L 39.59375 57.90625 
L 19.671875 57.90625 
L 15.328125 49.03125 
Q 28.265625 47.125 35.84375 39.40625 
Q 42.328125 32.765625 42.328125 23.78125 
Q 42.328125 18.5625 40.203125 14.109375 
Q 38.09375 9.671875 34.859375 6.546875 
Q 31.640625 3.421875 27.6875 1.515625 
Q 22.078125 -1.171875 16.15625 -1.171875 
Q 10.203125 -1.171875 7.484375 0.84375 
Q 4.78125 2.875 4.78125 5.328125 
Q 4.78125 6.6875 5.90625 7.734375 
Q 7.03125 8.796875 8.734375 8.796875 
Q 10.015625 8.796875 10.96875 8.40625 
Q 11.921875 8.015625 14.203125 6.390625 
Q 17.875 3.859375 21.625 3.859375 
Q 27.34375 3.859375 31.65625 8.171875 
Q 35.984375 12.5 35.984375 18.703125 
Q 35.984375 24.703125 32.125 29.90625 
Q 28.265625 35.109375 21.484375 37.9375 
Q 16.15625 40.140625 6.984375 40.484375 
L 19.671875 66.21875 
z
" id="TimesNewRomanPSMT-35"/>
      </defs>
      <g transform="translate(323.32 180.98375)scale(0.1 -0.1)">
       <use xlink:href="#TimesNewRomanPSMT-35"/>
       <use x="50" xlink:href="#TimesNewRomanPSMT-30"/>
      </g>
     </g>
    </g>
    <g id="xtick_9">
     <g id="line2d_36">
      <g>
       <use style="stroke:#000000;stroke-width:0.8;" x="379.374545" xlink:href="#m07b18081af" y="167.04"/>
      </g>
     </g>
     <g id="text_20">
      <!-- 100 -->
      <g transform="translate(371.874545 180.98375)scale(0.1 -0.1)">
       <use xlink:href="#TimesNewRomanPSMT-31"/>
       <use x="50" xlink:href="#TimesNewRomanPSMT-30"/>
       <use x="100" xlink:href="#TimesNewRomanPSMT-30"/>
      </g>
     </g>
    </g>
   </g>
   <g id="matplotlib.axis_4">
    <g id="ytick_7">
     <g id="line2d_37">
      <g>
       <use style="stroke:#000000;stroke-width:0.8;" x="272.16" xlink:href="#mcc7856920a" y="164.945455"/>
      </g>
     </g>
     <g id="text_21">
      <!-- $\mathdefault{0}$ -->
      <g transform="translate(260.16 168.41733)scale(0.1 -0.1)">
       <use transform="translate(0 0.421875)" xlink:href="#TimesNewRomanPSMT-30"/>
      </g>
     </g>
    </g>
    <g id="ytick_8">
     <g id="line2d_38">
      <g>
       <use style="stroke:#000000;stroke-width:0.8;" x="272.16" xlink:href="#mcc7856920a" y="136.508854"/>
      </g>
     </g>
     <g id="text_22">
      <!-- $\mathdefault{2}$ -->
      <g transform="translate(260.16 139.980729)scale(0.1 -0.1)">
       <use transform="translate(0 0.421875)" xlink:href="#TimesNewRomanPSMT-32"/>
      </g>
     </g>
    </g>
    <g id="text_23">
     <!-- $\times\mathdefault{10^{4}}\mathdefault{}$ -->
     <defs>
      <path d="M 70.125 53.71875 
L 47.796875 31.296875 
L 70.125 8.984375 
L 64.3125 3.078125 
L 41.890625 25.484375 
L 19.484375 3.078125 
L 13.71875 8.984375 
L 35.984375 31.296875 
L 13.71875 53.71875 
L 19.484375 59.625 
L 41.890625 37.203125 
L 64.3125 59.625 
z
" id="DejaVuSans-d7"/>
      <path d="M 54.4375 31.25 
L 1.8125 31.25 
L 1.8125 35.25 
L 54.4375 35.25 
z
" id="TimesNewRomanPSMT-2212"/>
     </defs>
     <g transform="translate(272.16 117.96)scale(0.1 -0.1)">
      <use transform="translate(0 0.582813)" xlink:href="#DejaVuSans-d7"/>
      <use transform="translate(83.789062 0.582813)" xlink:href="#TimesNewRomanPSMT-31"/>
      <use transform="translate(133.789062 0.582813)" xlink:href="#TimesNewRomanPSMT-30"/>
      <use transform="translate(185.291875 60.695312)scale(0.7)" xlink:href="#TimesNewRomanPSMT-2212"/>
      <use transform="translate(224.769414 60.695312)scale(0.7)" xlink:href="#TimesNewRomanPSMT-34"/>
     </g>
    </g>
   </g>
   <g id="line2d_39">
    <path clip-path="url(#p1a92f5bfb9)" d="M 277.265455 164.945455 
L 280.0224 161.722009 
L 282.779345 158.85796 
L 285.740509 156.11316 
L 289.110109 153.303354 
L 293.5008 149.951901 
L 302.384291 143.52041 
L 310.3488 137.683925 
L 324.133527 127.372032 
L 326.788364 125.794298 
L 329.034764 124.705461 
L 331.179055 123.913501 
L 333.221236 123.399837 
L 335.263418 123.120149 
L 337.407709 123.060588 
L 339.756218 123.231762 
L 342.411055 123.654288 
L 346.086982 124.486499 
L 357.318982 127.174398 
L 361.913891 127.967409 
L 366.713018 128.568203 
L 372.1248 129.01453 
L 378.557673 129.314252 
L 379.374545 129.339063 
L 379.374545 129.339063 
" style="fill:none;stroke:#0000ff;stroke-dasharray:3.7,1.6;stroke-dashoffset:0;"/>
    <defs>
     <path d="M 0 -1.5 
L -1.5 1.5 
L 1.5 1.5 
z
" id="m4ee54cc3bc" style="stroke:#0000ff;stroke-linejoin:miter;"/>
    </defs>
    <g clip-path="url(#p1a92f5bfb9)">
     <use style="fill:#0000ff;stroke:#0000ff;stroke-linejoin:miter;" x="277.265455" xlink:href="#m4ee54cc3bc" y="164.945455"/>
     <use style="fill:#0000ff;stroke:#0000ff;stroke-linejoin:miter;" x="284.413091" xlink:href="#m4ee54cc3bc" y="157.306161"/>
     <use style="fill:#0000ff;stroke:#0000ff;stroke-linejoin:miter;" x="291.560727" xlink:href="#m4ee54cc3bc" y="151.403078"/>
     <use style="fill:#0000ff;stroke:#0000ff;stroke-linejoin:miter;" x="298.708364" xlink:href="#m4ee54cc3bc" y="146.155587"/>
     <use style="fill:#0000ff;stroke:#0000ff;stroke-linejoin:miter;" x="305.856" xlink:href="#m4ee54cc3bc" y="141.01823"/>
     <use style="fill:#0000ff;stroke:#0000ff;stroke-linejoin:miter;" x="313.003636" xlink:href="#m4ee54cc3bc" y="135.653538"/>
     <use style="fill:#0000ff;stroke:#0000ff;stroke-linejoin:miter;" x="320.151273" xlink:href="#m4ee54cc3bc" y="130.157738"/>
     <use style="fill:#0000ff;stroke:#0000ff;stroke-linejoin:miter;" x="327.298909" xlink:href="#m4ee54cc3bc" y="125.525203"/>
     <use style="fill:#0000ff;stroke:#0000ff;stroke-linejoin:miter;" x="334.446545" xlink:href="#m4ee54cc3bc" y="123.204662"/>
     <use style="fill:#0000ff;stroke:#0000ff;stroke-linejoin:miter;" x="341.594182" xlink:href="#m4ee54cc3bc" y="123.503247"/>
     <use style="fill:#0000ff;stroke:#0000ff;stroke-linejoin:miter;" x="348.741818" xlink:href="#m4ee54cc3bc" y="125.163788"/>
     <use style="fill:#0000ff;stroke:#0000ff;stroke-linejoin:miter;" x="355.889455" xlink:href="#m4ee54cc3bc" y="126.88224"/>
     <use style="fill:#0000ff;stroke:#0000ff;stroke-linejoin:miter;" x="363.037091" xlink:href="#m4ee54cc3bc" y="128.127791"/>
     <use style="fill:#0000ff;stroke:#0000ff;stroke-linejoin:miter;" x="370.184727" xlink:href="#m4ee54cc3bc" y="128.878788"/>
     <use style="fill:#0000ff;stroke:#0000ff;stroke-linejoin:miter;" x="377.332364" xlink:href="#m4ee54cc3bc" y="129.272208"/>
    </g>
   </g>
   <g id="patch_9">
    <path d="M 272.16 167.04 
L 272.16 120.96 
" style="fill:none;stroke:#000000;stroke-linecap:square;stroke-linejoin:miter;stroke-width:0.8;"/>
   </g>
   <g id="patch_10">
    <path d="M 384.48 167.04 
L 384.48 120.96 
" style="fill:none;stroke:#000000;stroke-linecap:square;stroke-linejoin:miter;stroke-width:0.8;"/>
   </g>
   <g id="patch_11">
    <path d="M 272.16 167.04 
L 384.48 167.04 
" style="fill:none;stroke:#000000;stroke-linecap:square;stroke-linejoin:miter;stroke-width:0.8;"/>
   </g>
   <g id="patch_12">
    <path d="M 272.16 120.96 
L 384.48 120.96 
" style="fill:none;stroke:#000000;stroke-linecap:square;stroke-linejoin:miter;stroke-width:0.8;"/>
   </g>
   <g id="legend_2">
    <g id="patch_13">
     <path d="M 310.056 166.499437 
L 350.92725 166.499437 
Q 352.12725 166.499437 352.12725 165.299438 
L 352.12725 157.416 
Q 352.12725 156.216 350.92725 156.216 
L 310.056 156.216 
Q 308.856 156.216 308.856 157.416 
L 308.856 165.299438 
Q 308.856 166.499437 310.056 166.499437 
z
" style="fill:#ffffff;opacity:0.8;stroke:#cccccc;stroke-linejoin:miter;"/>
    </g>
    <g id="line2d_40">
     <path d="M 311.256 160.716 
L 323.256 160.716 
" style="fill:none;stroke:#0000ff;stroke-dasharray:3.7,1.6;stroke-dashoffset:0;"/>
    </g>
    <g id="line2d_41">
     <g>
      <use style="fill:#0000ff;stroke:#0000ff;stroke-linejoin:miter;" x="317.256" xlink:href="#m4ee54cc3bc" y="160.716"/>
     </g>
    </g>
    <g id="text_24">
     <!-- MKKKP -->
     <g transform="translate(328.056 162.816)scale(0.06 -0.06)">
      <use xlink:href="#TimesNewRomanPSMT-4d"/>
      <use x="88.916016" xlink:href="#TimesNewRomanPSMT-4b"/>
      <use x="161.132812" xlink:href="#TimesNewRomanPSMT-4b"/>
      <use x="233.349609" xlink:href="#TimesNewRomanPSMT-4b"/>
      <use x="305.566406" xlink:href="#TimesNewRomanPSMT-50"/>
     </g>
    </g>
   </g>
  </g>
 </g>
 <defs>
  <clipPath id="p2d7cfcbf65">
   <rect height="230.4" width="345.6" x="43.2" y="28.8"/>
  </clipPath>
  <clipPath id="p1a92f5bfb9">
   <rect height="46.08" width="112.32" x="272.16" y="120.96"/>
  </clipPath>
 </defs>
</svg>
